<svg xmlns="http://www.w3.org/2000/svg" xmlns:xlink="http://www.w3.org/1999/xlink" width="576" zoomAndPan="magnify" viewBox="0 0 432 306.749988" height="409" preserveAspectRatio="xMidYMid meet" version="1.0"><defs><clipPath id="9dda070e0b"><path d="M 0.175781 0 L 431.824219 0 L 431.824219 306.5 L 0.175781 306.5 Z M 0.175781 0 " clip-rule="nonzero"/></clipPath><clipPath id="96f967998f"><path d="M 0.175781 0 L 431.824219 0 L 431.824219 306.5 L 0.175781 306.5 Z M 0.175781 0 " clip-rule="nonzero"/></clipPath><clipPath id="d57cd12c9c"><path d="M -72.570312 -4.53125 L 504.570312 -4.53125 C 509.898438 -4.53125 514.21875 -0.210938 514.21875 5.117188 L 514.21875 301.382812 C 514.21875 306.710938 509.898438 311.03125 504.570312 311.03125 L -72.570312 311.03125 C -77.898438 311.03125 -82.21875 306.710938 -82.21875 301.382812 L -82.21875 5.117188 C -82.21875 -0.210938 -77.898438 -4.53125 -72.570312 -4.53125 Z M -72.570312 -4.53125 " clip-rule="nonzero"/></clipPath><clipPath id="c0b59c491a"><path d="M 0.175781 0 L 431.824219 0 L 431.824219 306.5 L 0.175781 306.5 Z M 0.175781 0 " clip-rule="nonzero"/></clipPath><clipPath id="325c527173"><path d="M -72.566406 -4.53125 L 504.558594 -4.53125 C 509.886719 -4.53125 514.207031 -0.210938 514.207031 5.117188 L 514.207031 301.371094 C 514.207031 306.703125 509.886719 311.019531 504.558594 311.019531 L -72.566406 311.019531 C -77.894531 311.019531 -82.214844 306.703125 -82.214844 301.371094 L -82.214844 5.117188 C -82.214844 -0.210938 -77.894531 -4.53125 -72.566406 -4.53125 Z M -72.566406 -4.53125 " clip-rule="nonzero"/></clipPath><clipPath id="28048a3209"><path d="M 355.234375 122.09375 L 424.175781 122.09375 L 424.175781 233.753906 L 355.234375 233.753906 Z M 355.234375 122.09375 " clip-rule="nonzero"/></clipPath></defs><g clip-path="url(#9dda070e0b)"><path fill="#ffffff" d="M 0.175781 0 L 431.824219 0 L 431.824219 306.5 L 0.175781 306.5 Z M 0.175781 0 " fill-opacity="1" fill-rule="nonzero"/><path fill="#5479f7" d="M 0.175781 0 L 431.824219 0 L 431.824219 306.5 L 0.175781 306.5 Z M 0.175781 0 " fill-opacity="1" fill-rule="nonzero"/></g><g clip-path="url(#96f967998f)"><g clip-path="url(#d57cd12c9c)"><rect x="-43.2" width="518.4" fill="#ffffff" y="-30.674999" height="368.099986" fill-opacity="1"/></g></g><g clip-path="url(#c0b59c491a)"><g clip-path="url(#325c527173)"><path stroke-linecap="butt" transform="matrix(0.749389, 0, 0, 0.749389, -82.215032, -4.530214)" fill="none" stroke-linejoin="miter" d="M 12.87532 -0.00138309 L 783.002522 -0.00138309 C 790.112479 -0.00138309 795.877591 5.763729 795.877591 12.873686 L 795.877591 408.200854 C 795.877591 415.316023 790.112479 421.075923 783.002522 421.075923 L 12.87532 421.075923 C 5.765363 421.075923 0.000251275 415.316023 0.000251275 408.200854 L 0.000251275 12.873686 C 0.000251275 5.763729 5.765363 -0.00138309 12.87532 -0.00138309 Z M 12.87532 -0.00138309 " stroke="#000000" stroke-width="2" stroke-opacity="1" stroke-miterlimit="4"/></g></g><path fill="#caddff" d="M 181.632812 209.996094 C 187.746094 224.84375 202.042969 231.867188 211.179688 236.355469 C 247.191406 254.046875 301.90625 251.972656 341.289062 219.695312 C 350.507812 212.144531 395.9375 172.574219 385.363281 118.996094 C 376.019531 71.632812 328.988281 44.15625 289.382812 40.503906 C 256.570312 37.480469 213.714844 49.4375 198.570312 78.332031 C 189.046875 96.5 200.488281 102.269531 192.695312 143.441406 C 185.953125 179.074219 174.148438 191.832031 181.632812 209.996094 " fill-opacity="1" fill-rule="nonzero"/><path fill="#5479f7" d="M 219.648438 100.652344 C 219.851562 98.308594 229.046875 102.03125 233.367188 97.039062 C 237.316406 92.476562 232.492188 86.070312 236.359375 82.117188 C 240.496094 77.882812 248.074219 83.121094 252.109375 78.640625 C 255.21875 75.1875 251.644531 71.046875 254.640625 67.058594 C 258.238281 62.265625 264.480469 66.796875 271.609375 62.597656 C 278.265625 58.675781 276.648438 52.472656 283.453125 50.742188 C 284.339844 50.519531 289.734375 49.261719 293.125 52.210938 C 298.640625 57.011719 297.828125 72.046875 290.003906 78.667969 C 283.414062 84.246094 276.78125 79.6875 270.359375 86.132812 C 264.917969 91.59375 268.246094 96.308594 262.890625 99.523438 C 256.550781 103.335938 249.773438 98.003906 243.128906 102.75 C 239.648438 105.230469 240.410156 107.476562 237.171875 108.539062 C 230.335938 110.78125 219.421875 103.230469 219.648438 100.652344 " fill-opacity="1" fill-rule="nonzero"/><path fill="#99b9ff" d="M 231.597656 104.441406 C 229.035156 104.441406 226.003906 103.644531 222.53125 102.050781 C 222.34375 101.964844 222.261719 101.742188 222.347656 101.554688 C 222.433594 101.367188 222.660156 101.285156 222.847656 101.371094 C 228.074219 103.769531 232.226562 104.316406 235.1875 102.992188 C 237.359375 102.015625 238.113281 100.371094 238.988281 98.464844 C 239.867188 96.546875 240.863281 94.371094 243.589844 92.828125 C 246.460938 91.199219 248.867188 91.414062 250.992188 91.601562 C 252.980469 91.78125 254.855469 91.945312 256.910156 90.636719 C 259.816406 88.785156 260.105469 85.917969 260.410156 82.886719 C 260.71875 79.835938 261.035156 76.679688 264.058594 74.425781 C 266.488281 72.613281 269.019531 72.621094 271.703125 72.625 C 274.558594 72.632812 277.511719 72.636719 280.828125 70.539062 C 283.304688 68.972656 285.265625 66.664062 286.652344 63.683594 C 286.742188 63.5 286.964844 63.417969 287.152344 63.503906 C 287.339844 63.589844 287.421875 63.816406 287.335938 64 C 285.886719 67.113281 283.832031 69.523438 281.230469 71.171875 C 277.730469 73.386719 274.53125 73.382812 271.703125 73.375 C 269.039062 73.367188 266.734375 73.363281 264.507812 75.027344 C 261.746094 77.082031 261.460938 79.9375 261.15625 82.960938 C 260.847656 86.039062 260.527344 89.222656 257.316406 91.269531 C 255.042969 92.71875 253.042969 92.539062 250.925781 92.347656 C 248.8125 92.160156 246.628906 91.964844 243.960938 93.476562 C 241.445312 94.90625 240.542969 96.875 239.671875 98.777344 C 238.773438 100.734375 237.925781 102.585938 235.496094 103.675781 C 234.347656 104.1875 233.050781 104.441406 231.597656 104.441406 " fill-opacity="1" fill-rule="nonzero"/><path fill="#99b9ff" d="M 216.046875 110.664062 C 216.542969 109.160156 224.019531 112.941406 235.921875 109.871094 C 243.132812 108.011719 248.355469 104.570312 253.226562 101.304688 C 265.269531 93.230469 264.9375 89.230469 272.121094 86.886719 C 280.742188 84.074219 282.976562 90.132812 293.179688 88.425781 C 305.765625 86.316406 306.707031 76.375 318.777344 75.136719 C 325.375 74.460938 334.183594 76.496094 337.867188 82.800781 C 340.09375 86.617188 340.730469 92.488281 337.945312 95.757812 C 335.257812 98.914062 331.382812 97.296875 325.699219 98.984375 C 315.554688 101.988281 316.859375 110.410156 308.125 114.847656 C 296.273438 120.871094 286.75 108.980469 272.089844 115.671875 C 266.1875 118.371094 267.238281 120.523438 261.730469 123.214844 C 243.148438 132.304688 215.0625 113.640625 216.046875 110.664062 " fill-opacity="1" fill-rule="nonzero"/><path fill="#ffffff" d="M 237.960938 117.542969 C 232.871094 117.542969 227.148438 116.449219 220.832031 114.257812 C 220.636719 114.1875 220.535156 113.976562 220.601562 113.78125 C 220.671875 113.585938 220.882812 113.480469 221.082031 113.550781 C 233.25 117.773438 243.148438 117.875 250.5 113.855469 C 253.945312 111.96875 256.421875 109.4375 258.816406 106.992188 C 262.507812 103.214844 265.996094 99.648438 272.558594 98.695312 C 277.179688 98.019531 280.570312 99.089844 283.5625 100.027344 C 287.042969 101.125 290.050781 102.070312 294.296875 100.390625 C 297.257812 99.222656 298.753906 97.59375 300.644531 95.535156 C 302.511719 93.507812 304.625 91.210938 308.71875 88.699219 C 312.761719 86.21875 317.265625 84.449219 322.105469 83.433594 C 322.308594 83.390625 322.507812 83.523438 322.550781 83.722656 C 322.59375 83.925781 322.460938 84.125 322.257812 84.167969 C 317.503906 85.164062 313.078125 86.902344 309.113281 89.335938 C 305.105469 91.792969 303.03125 94.050781 301.199219 96.042969 C 299.320312 98.089844 297.691406 99.855469 294.570312 101.085938 C 290.078125 102.863281 286.804688 101.832031 283.335938 100.742188 C 280.277344 99.78125 277.117188 98.789062 272.667969 99.4375 C 266.355469 100.355469 262.953125 103.832031 259.351562 107.515625 C 256.921875 110 254.40625 112.570312 250.859375 114.511719 C 247.164062 116.53125 242.851562 117.542969 237.960938 117.542969 " fill-opacity="1" fill-rule="nonzero"/><path fill="#5479f7" d="M 210.222656 219.324219 C 208.34375 219.324219 206.570312 218.863281 204.917969 217.941406 C 193.207031 211.402344 190.410156 182.488281 187.449219 151.882812 C 187.28125 150.132812 187.113281 148.386719 186.941406 146.644531 C 186.835938 145.542969 187.640625 144.566406 188.738281 144.460938 C 189.839844 144.351562 190.820312 145.15625 190.925781 146.253906 C 191.097656 148 191.265625 149.746094 191.4375 151.496094 C 192.820312 165.820312 194.253906 180.628906 196.644531 192.246094 C 199.222656 204.785156 202.566406 212.046875 206.871094 214.449219 C 209.1875 215.742188 211.890625 215.597656 215.140625 214.011719 C 216.136719 213.527344 217.332031 213.9375 217.820312 214.929688 C 218.304688 215.921875 217.894531 217.117188 216.902344 217.601562 C 214.550781 218.75 212.320312 219.324219 210.222656 219.324219 " fill-opacity="1" fill-rule="nonzero"/><path fill="#000000" d="M 212.351562 223.679688 L 229.914062 223.679688 C 232.609375 223.679688 234.792969 221.5 234.792969 218.808594 L 234.792969 215.621094 C 234.792969 212.929688 232.609375 210.75 229.914062 210.75 L 212.351562 210.75 C 209.65625 210.75 207.46875 212.929688 207.46875 215.621094 L 207.46875 218.808594 C 207.46875 221.5 209.65625 223.679688 212.351562 223.679688 " fill-opacity="1" fill-rule="nonzero"/><path fill="#000000" d="M 187.035156 153.382812 L 190.140625 153.046875 C 192.097656 152.839844 193.515625 151.082031 193.304688 149.128906 L 190.382812 121.964844 C 190.171875 120.011719 188.414062 118.597656 186.457031 118.804688 L 183.351562 119.140625 C 181.394531 119.347656 179.976562 121.105469 180.1875 123.058594 L 183.109375 150.222656 C 183.320312 152.175781 185.078125 153.589844 187.035156 153.382812 " fill-opacity="1" fill-rule="nonzero"/><path fill="#000000" d="M 185.699219 125.453125 C 185.6875 125.453125 185.675781 125.453125 185.664062 125.453125 C 184.421875 125.4375 183.425781 124.414062 183.445312 123.175781 C 183.613281 111.21875 185.875 100.207031 190.167969 90.441406 C 194.175781 81.324219 199.957031 73.269531 207.347656 66.503906 C 214.242188 60.1875 222.480469 55.035156 231.835938 51.191406 C 240.679688 47.554688 250.34375 45.15625 260.550781 44.0625 C 282.820312 41.671875 306.382812 45.804688 325.203125 55.398438 C 335.097656 60.441406 343.425781 66.792969 349.949219 74.269531 C 356.960938 82.308594 361.691406 91.4375 364.011719 101.410156 C 364.292969 102.621094 363.539062 103.828125 362.328125 104.109375 C 361.117188 104.390625 359.90625 103.640625 359.625 102.429688 C 350.460938 63.054688 302.300781 44.105469 261.03125 48.535156 C 226.160156 52.277344 188.644531 73.867188 187.949219 123.238281 C 187.929688 124.46875 186.925781 125.453125 185.699219 125.453125 " fill-opacity="1" fill-rule="nonzero"/><path fill="#ffffff" d="M 211.257812 207.304688 L 358.554688 210.714844 C 363.007812 210.816406 366 207.148438 365.234375 202.523438 L 348.539062 101.367188 C 347.777344 96.742188 343.546875 92.90625 339.097656 92.804688 L 191.796875 89.398438 C 187.34375 89.292969 184.355469 92.960938 185.117188 97.585938 L 201.8125 198.742188 C 202.574219 203.367188 206.804688 207.203125 211.257812 207.304688 " fill-opacity="1" fill-rule="nonzero"/><path fill="#99b9ff" d="M 359.261719 204.640625 C 359.324219 204.640625 359.378906 204.640625 359.425781 204.636719 C 359.433594 204.503906 359.425781 204.320312 359.386719 204.089844 L 342.695312 102.933594 C 342.363281 100.929688 340.230469 98.921875 338.390625 98.878906 L 191.09375 95.46875 C 191.03125 95.46875 190.976562 95.46875 190.929688 95.472656 C 190.921875 95.605469 190.925781 95.789062 190.964844 96.019531 L 207.660156 197.175781 C 207.992188 199.179688 210.121094 201.1875 211.960938 201.230469 L 359.261719 204.640625 " fill-opacity="1" fill-rule="nonzero"/><path fill="#000000" d="M 358.738281 211.089844 C 358.675781 211.089844 358.609375 211.089844 358.546875 211.089844 L 211.25 207.679688 C 206.632812 207.574219 202.234375 203.589844 201.441406 198.804688 L 184.746094 97.648438 C 184.347656 95.214844 184.914062 92.96875 186.347656 91.320312 C 187.679688 89.789062 189.621094 88.96875 191.804688 89.023438 L 208.175781 89.402344 C 208.382812 89.40625 208.546875 89.578125 208.542969 89.785156 C 208.539062 89.992188 208.367188 90.144531 208.15625 90.148438 L 191.789062 89.769531 C 189.828125 89.726562 188.097656 90.453125 186.914062 91.8125 C 185.628906 93.285156 185.125 95.316406 185.488281 97.523438 L 202.183594 198.683594 C 202.917969 203.132812 206.992188 206.832031 211.265625 206.929688 L 358.5625 210.339844 C 360.523438 210.382812 362.253906 209.660156 363.4375 208.296875 C 364.722656 206.824219 365.230469 204.792969 364.863281 202.585938 L 348.167969 101.429688 C 347.433594 96.976562 343.359375 93.277344 339.085938 93.179688 L 256.316406 91.265625 C 256.109375 91.257812 255.945312 91.089844 255.949219 90.878906 C 255.957031 90.671875 256.128906 90.523438 256.335938 90.515625 L 339.105469 92.429688 C 343.722656 92.535156 348.121094 96.519531 348.910156 101.304688 L 365.605469 202.460938 C 366.007812 204.894531 365.441406 207.144531 364.007812 208.789062 C 362.710938 210.277344 360.847656 211.089844 358.738281 211.089844 " fill-opacity="1" fill-rule="nonzero"/><path fill="#ffffff" d="M 337.695312 154.722656 L 257.359375 154.722656 C 253.917969 154.722656 251 152.191406 250.523438 148.785156 L 246.085938 117.199219 C 245.503906 113.054688 248.726562 109.347656 252.921875 109.347656 L 333.257812 109.347656 C 336.703125 109.347656 339.617188 111.882812 340.097656 115.285156 L 344.535156 146.871094 C 345.117188 151.019531 341.890625 154.722656 337.695312 154.722656 " fill-opacity="1" fill-rule="nonzero"/><path fill="#5479f7" d="M 270.277344 143.617188 L 268.386719 143.617188 L 263.761719 137.691406 L 264.707031 143.617188 L 262.816406 143.617188 L 261.382812 134.613281 L 263.273438 134.613281 L 267.90625 140.550781 L 266.957031 134.613281 L 268.84375 134.613281 L 270.277344 143.617188 " fill-opacity="1" fill-rule="nonzero"/><path fill="#5479f7" d="M 276.824219 139.714844 L 273.195312 139.714844 L 273.578125 142.128906 L 277.839844 142.128906 L 278.078125 143.617188 L 271.925781 143.617188 L 270.492188 134.613281 L 276.628906 134.613281 L 276.867188 136.113281 L 272.621094 136.113281 L 272.964844 138.261719 L 276.59375 138.261719 L 276.824219 139.714844 " fill-opacity="1" fill-rule="nonzero"/><path fill="#5479f7" d="M 284.082031 139.714844 L 280.453125 139.714844 L 280.835938 142.128906 L 285.097656 142.128906 L 285.335938 143.617188 L 279.183594 143.617188 L 277.75 134.613281 L 283.886719 134.613281 L 284.125 136.113281 L 279.878906 136.113281 L 280.222656 138.261719 L 283.851562 138.261719 L 284.082031 139.714844 " fill-opacity="1" fill-rule="nonzero"/><path fill="#5479f7" d="M 287.136719 136.113281 L 288.097656 142.128906 L 289.011719 142.128906 C 289.75 142.128906 290.277344 141.890625 290.589844 141.417969 C 290.90625 140.941406 290.996094 140.265625 290.867188 139.382812 L 290.789062 138.902344 C 290.644531 137.988281 290.339844 137.292969 289.878906 136.824219 C 289.417969 136.351562 288.816406 136.113281 288.070312 136.113281 Z M 286.445312 143.617188 L 285.007812 134.613281 L 287.832031 134.613281 C 288.636719 134.613281 289.386719 134.789062 290.082031 135.148438 C 290.773438 135.503906 291.351562 136.011719 291.8125 136.667969 C 292.273438 137.324219 292.574219 138.074219 292.707031 138.910156 L 292.769531 139.324219 C 292.90625 140.160156 292.847656 140.90625 292.601562 141.558594 C 292.355469 142.210938 291.941406 142.714844 291.359375 143.074219 C 290.777344 143.433594 290.085938 143.613281 289.285156 143.617188 L 286.445312 143.617188 " fill-opacity="1" fill-rule="nonzero"/><path fill="#5479f7" d="M 305.507812 143.617188 L 303.617188 143.617188 L 303.003906 139.757812 L 299.316406 139.757812 L 299.933594 143.617188 L 298.042969 143.617188 L 296.609375 134.613281 L 298.496094 134.613281 L 299.078125 138.261719 L 302.765625 138.261719 L 302.183594 134.613281 L 304.074219 134.613281 L 305.507812 143.617188 " fill-opacity="1" fill-rule="nonzero"/><path fill="#5479f7" d="M 312.054688 139.714844 L 308.425781 139.714844 L 308.8125 142.128906 L 313.070312 142.128906 L 313.308594 143.617188 L 307.160156 143.617188 L 305.726562 134.613281 L 311.859375 134.613281 L 312.101562 136.113281 L 307.855469 136.113281 L 308.195312 138.261719 L 311.824219 138.261719 L 312.054688 139.714844 " fill-opacity="1" fill-rule="nonzero"/><path fill="#5479f7" d="M 316.070312 142.128906 L 320.082031 142.128906 L 320.320312 143.617188 L 314.417969 143.617188 L 312.980469 134.613281 L 314.871094 134.613281 L 316.070312 142.128906 " fill-opacity="1" fill-rule="nonzero"/><path fill="#5479f7" d="M 322.550781 138.941406 L 324.238281 138.941406 C 324.738281 138.941406 325.101562 138.824219 325.324219 138.59375 C 325.550781 138.363281 325.632812 138.035156 325.5625 137.605469 C 325.492188 137.164062 325.304688 136.808594 324.996094 136.535156 C 324.6875 136.261719 324.300781 136.125 323.832031 136.113281 L 322.097656 136.113281 Z M 322.789062 140.445312 L 323.292969 143.617188 L 321.40625 143.617188 L 319.96875 134.613281 L 323.546875 134.613281 C 324.238281 134.613281 324.863281 134.734375 325.425781 134.980469 C 325.988281 135.230469 326.445312 135.582031 326.800781 136.039062 C 327.152344 136.492188 327.378906 137.011719 327.46875 137.59375 C 327.609375 138.476562 327.414062 139.171875 326.878906 139.679688 C 326.34375 140.191406 325.535156 140.445312 324.445312 140.445312 L 322.789062 140.445312 " fill-opacity="1" fill-rule="nonzero"/><path fill="#5479f7" d="M 330.773438 142.757812 C 330.730469 142.480469 330.789062 142.253906 330.953125 142.074219 C 331.113281 141.894531 331.34375 141.804688 331.644531 141.804688 C 331.941406 141.804688 332.203125 141.894531 332.421875 142.074219 C 332.640625 142.253906 332.773438 142.480469 332.816406 142.757812 C 332.859375 143.027344 332.800781 143.25 332.640625 143.429688 C 332.484375 143.605469 332.25 143.691406 331.945312 143.691406 C 331.636719 143.691406 331.378906 143.605469 331.160156 143.429688 C 330.945312 143.25 330.816406 143.027344 330.773438 142.757812 Z M 330.65625 140.859375 C 330.5625 140.28125 330.5625 139.820312 330.648438 139.480469 C 330.738281 139.136719 330.945312 138.796875 331.273438 138.464844 C 331.597656 138.132812 331.808594 137.863281 331.902344 137.65625 C 331.996094 137.445312 332.023438 137.226562 331.988281 136.996094 C 331.875 136.296875 331.492188 135.949219 330.835938 135.949219 C 330.527344 135.949219 330.292969 136.042969 330.132812 136.230469 C 329.976562 136.417969 329.921875 136.675781 329.964844 137.007812 L 328.140625 137.007812 C 328.023438 136.21875 328.183594 135.601562 328.621094 135.15625 C 329.0625 134.710938 329.722656 134.488281 330.605469 134.488281 C 331.492188 134.488281 332.21875 134.699219 332.777344 135.121094 C 333.335938 135.546875 333.679688 136.144531 333.800781 136.914062 C 333.855469 137.265625 333.832031 137.597656 333.71875 137.910156 C 333.609375 138.222656 333.386719 138.566406 333.046875 138.945312 L 332.613281 139.421875 C 332.339844 139.726562 332.214844 140.078125 332.234375 140.480469 L 332.269531 140.859375 L 330.65625 140.859375 " fill-opacity="1" fill-rule="nonzero"/><path fill="#5479f7" d="M 266.957031 126.800781 L 265.066406 126.800781 L 264.453125 122.941406 L 260.765625 122.941406 L 261.378906 126.800781 L 259.488281 126.800781 L 258.058594 117.792969 L 259.949219 117.792969 L 260.527344 121.445312 L 264.214844 121.445312 L 263.632812 117.792969 L 265.527344 117.792969 L 266.957031 126.800781 " fill-opacity="1" fill-rule="nonzero"/><path fill="#5479f7" d="M 270.617188 126.800781 L 268.726562 126.800781 L 267.296875 117.792969 L 269.1875 117.792969 L 270.617188 126.800781 " fill-opacity="1" fill-rule="nonzero"/><path fill="#5479f7" d="M 273.660156 124.035156 L 272.148438 124.035156 L 270.941406 117.792969 L 272.882812 117.792969 Z M 273.058594 125.015625 C 273.367188 125.015625 273.628906 125.101562 273.84375 125.28125 C 274.058594 125.457031 274.1875 125.683594 274.230469 125.960938 C 274.273438 126.234375 274.214844 126.457031 274.058594 126.632812 C 273.898438 126.8125 273.667969 126.902344 273.359375 126.902344 C 273.058594 126.902344 272.796875 126.8125 272.585938 126.632812 C 272.367188 126.457031 272.238281 126.234375 272.195312 125.960938 C 272.152344 125.6875 272.210938 125.460938 272.367188 125.28125 C 272.527344 125.105469 272.757812 125.015625 273.058594 125.015625 " fill-opacity="1" fill-rule="nonzero"/><path fill="#5479f7" d="M 379.863281 169.550781 L 380.144531 169.515625 C 384.421875 168.964844 387.445312 165.054688 386.890625 160.78125 L 380.136719 108.464844 C 379.585938 104.191406 375.671875 101.175781 371.394531 101.726562 L 371.109375 101.761719 C 366.832031 102.3125 363.808594 106.222656 364.359375 110.492188 L 371.113281 162.8125 C 371.667969 167.085938 375.582031 170.101562 379.863281 169.550781 " fill-opacity="1" fill-rule="nonzero"/><path fill="#000000" d="M 365.199219 177.347656 L 374.234375 176.183594 C 377.730469 175.734375 380.199219 172.539062 379.746094 169.050781 L 371.105469 102.085938 C 370.652344 98.59375 367.457031 96.128906 363.960938 96.582031 L 354.925781 97.742188 C 351.429688 98.191406 348.960938 101.386719 349.410156 104.875 L 358.054688 171.84375 C 358.503906 175.332031 361.703125 177.796875 365.199219 177.347656 " fill-opacity="1" fill-rule="nonzero"/><path fill="#caddff" d="M 259.332031 209.9375 C 254.710938 202.210938 257.242188 192.210938 264.984375 187.597656 C 272.722656 182.988281 282.742188 185.511719 287.359375 193.242188 C 291.976562 200.96875 289.449219 210.96875 281.707031 215.582031 C 273.96875 220.191406 263.949219 217.667969 259.332031 209.9375 Z M 287.429688 231.328125 L 292.871094 228.085938 L 290.71875 221.515625 C 291.847656 220.539062 292.878906 219.484375 293.804688 218.355469 L 300.433594 220.3125 L 303.527344 214.789062 L 298.371094 210.171875 C 298.847656 208.78125 299.207031 207.351562 299.449219 205.898438 L 306.183594 204.28125 L 306.089844 197.953125 L 299.324219 196.53125 C 299.042969 195.101562 298.640625 193.683594 298.113281 192.292969 L 303.132812 187.53125 L 299.882812 182.09375 L 293.300781 184.242188 C 292.324219 183.117188 291.265625 182.089844 290.140625 181.164062 L 292.097656 174.542969 L 286.5625 171.457031 L 281.941406 176.605469 C 280.546875 176.128906 279.117188 175.765625 277.664062 175.527344 L 276.042969 168.804688 L 269.703125 168.894531 L 268.277344 175.652344 C 266.847656 175.933594 265.425781 176.335938 264.03125 176.863281 L 259.261719 171.851562 L 253.816406 175.09375 L 255.96875 181.664062 C 254.84375 182.640625 253.8125 183.695312 252.886719 184.820312 L 246.253906 182.867188 L 243.164062 188.390625 L 248.320312 193.007812 C 247.84375 194.398438 247.480469 195.828125 247.242188 197.277344 L 240.507812 198.898438 L 240.597656 205.226562 L 247.367188 206.648438 C 247.644531 208.078125 248.050781 209.496094 248.578125 210.886719 L 243.558594 215.652344 L 246.808594 221.085938 L 253.386719 218.9375 C 254.367188 220.058594 255.421875 221.089844 256.550781 222.015625 L 254.589844 228.636719 L 260.125 231.722656 L 264.75 226.574219 C 266.144531 227.050781 267.574219 227.410156 269.027344 227.652344 L 270.648438 234.375 L 276.988281 234.285156 L 278.410156 227.527344 C 279.84375 227.246094 281.265625 226.84375 282.660156 226.316406 L 287.429688 231.328125 " fill-opacity="1" fill-rule="nonzero"/><path fill="#000000" d="M 274.082031 182.65625 C 271.304688 182.65625 268.492188 183.378906 265.9375 184.902344 C 262.28125 187.078125 259.691406 190.550781 258.652344 194.671875 C 257.605469 198.796875 258.234375 203.078125 260.417969 206.726562 C 262.597656 210.378906 266.074219 212.964844 270.207031 214.003906 C 274.335938 215.046875 278.621094 214.417969 282.28125 212.242188 C 285.9375 210.0625 288.523438 206.589844 289.570312 202.46875 C 290.609375 198.347656 289.984375 194.066406 287.800781 190.414062 C 284.820312 185.425781 279.515625 182.65625 274.082031 182.65625 Z M 274.136719 215.246094 C 272.765625 215.246094 271.386719 215.074219 270.019531 214.730469 C 265.695312 213.640625 262.058594 210.933594 259.773438 207.113281 C 257.488281 203.289062 256.832031 198.804688 257.921875 194.488281 C 259.015625 190.171875 261.722656 186.539062 265.554688 184.257812 C 273.460938 179.546875 283.726562 182.136719 288.445312 190.027344 C 290.730469 193.851562 291.386719 198.335938 290.296875 202.652344 C 289.203125 206.96875 286.492188 210.601562 282.664062 212.882812 C 280.042969 214.445312 277.113281 215.246094 274.136719 215.246094 Z M 265.515625 223.179688 C 265.554688 223.179688 265.59375 223.1875 265.636719 223.199219 C 267.003906 223.667969 268.421875 224.027344 269.851562 224.261719 C 270 224.289062 270.121094 224.398438 270.15625 224.546875 L 271.707031 230.976562 L 277.445312 230.894531 L 278.808594 224.429688 C 278.839844 224.285156 278.957031 224.167969 279.105469 224.140625 C 280.503906 223.867188 281.914062 223.464844 283.289062 222.949219 C 283.433594 222.894531 283.589844 222.929688 283.695312 223.039062 L 288.257812 227.835938 L 293.1875 224.898438 L 291.128906 218.613281 C 291.082031 218.46875 291.125 218.3125 291.238281 218.214844 C 292.347656 217.25 293.371094 216.203125 294.277344 215.101562 C 294.371094 214.984375 294.527344 214.9375 294.675781 214.976562 L 301.015625 216.851562 L 303.816406 211.847656 L 298.882812 207.429688 C 298.769531 207.332031 298.730469 207.171875 298.777344 207.03125 C 299.246094 205.664062 299.605469 204.246094 299.84375 202.820312 C 299.867188 202.671875 299.980469 202.550781 300.125 202.519531 L 306.566406 200.96875 L 306.484375 195.238281 L 300.011719 193.878906 C 299.863281 193.847656 299.75 193.730469 299.71875 193.585938 C 299.445312 192.183594 299.042969 190.777344 298.523438 189.402344 C 298.472656 189.261719 298.507812 189.101562 298.617188 189 L 303.417969 184.445312 L 300.476562 179.523438 L 294.183594 181.578125 C 294.039062 181.625 293.882812 181.582031 293.78125 181.46875 C 292.820312 180.363281 291.769531 179.339844 290.664062 178.433594 C 290.550781 178.339844 290.5 178.183594 290.542969 178.039062 L 292.417969 171.707031 L 287.40625 168.914062 L 282.984375 173.835938 C 282.882812 173.949219 282.726562 173.992188 282.582031 173.941406 C 281.210938 173.472656 279.792969 173.113281 278.363281 172.878906 C 278.214844 172.855469 278.097656 172.742188 278.0625 172.597656 L 276.511719 166.164062 L 270.773438 166.246094 L 269.410156 172.710938 C 269.378906 172.859375 269.261719 172.972656 269.113281 173 C 267.710938 173.273438 266.304688 173.675781 264.925781 174.195312 C 264.785156 174.246094 264.625 174.210938 264.523438 174.101562 L 259.960938 169.308594 L 255.03125 172.246094 L 257.09375 178.527344 C 257.136719 178.671875 257.09375 178.828125 256.980469 178.929688 C 255.871094 179.890625 254.847656 180.9375 253.941406 182.042969 C 253.847656 182.15625 253.691406 182.203125 253.542969 182.164062 L 247.199219 180.292969 L 244.402344 185.292969 L 249.335938 189.710938 C 249.449219 189.808594 249.488281 189.96875 249.441406 190.109375 C 248.96875 191.480469 248.613281 192.894531 248.375 194.320312 C 248.351562 194.46875 248.238281 194.589844 248.09375 194.625 L 241.652344 196.171875 L 241.734375 201.902344 L 248.207031 203.261719 C 248.355469 203.292969 248.46875 203.410156 248.5 203.558594 C 248.769531 204.957031 249.171875 206.363281 249.691406 207.738281 C 249.746094 207.878906 249.710938 208.039062 249.601562 208.140625 L 244.796875 212.695312 L 247.738281 217.617188 L 254.035156 215.5625 C 254.179688 215.515625 254.335938 215.558594 254.4375 215.671875 C 255.402344 216.78125 256.449219 217.804688 257.550781 218.707031 C 257.667969 218.800781 257.71875 218.957031 257.675781 219.101562 L 255.800781 225.4375 L 260.8125 228.230469 L 265.234375 223.304688 C 265.308594 223.222656 265.410156 223.179688 265.515625 223.179688 Z M 271.414062 231.730469 C 271.238281 231.730469 271.089844 231.613281 271.046875 231.445312 L 269.484375 224.960938 C 268.179688 224.730469 266.882812 224.40625 265.628906 223.988281 L 261.167969 228.953125 C 261.050781 229.082031 260.859375 229.113281 260.707031 229.03125 L 255.171875 225.945312 C 255.019531 225.859375 254.945312 225.679688 254.996094 225.511719 L 256.882812 219.125 C 255.878906 218.289062 254.921875 217.355469 254.03125 216.351562 L 247.6875 218.421875 C 247.519531 218.476562 247.339844 218.410156 247.25 218.257812 L 244 212.824219 C 243.910156 212.671875 243.9375 212.480469 244.0625 212.359375 L 248.902344 207.769531 C 248.441406 206.507812 248.074219 205.226562 247.8125 203.945312 L 241.285156 202.574219 C 241.113281 202.539062 240.988281 202.386719 240.988281 202.210938 L 240.894531 195.882812 C 240.894531 195.710938 241.011719 195.554688 241.183594 195.515625 L 247.675781 193.953125 C 247.90625 192.652344 248.230469 191.359375 248.648438 190.105469 L 243.679688 185.652344 C 243.546875 185.535156 243.515625 185.34375 243.601562 185.191406 L 246.691406 179.664062 C 246.777344 179.511719 246.957031 179.4375 247.125 179.488281 L 253.519531 181.375 C 254.359375 180.371094 255.292969 179.414062 256.300781 178.527344 L 254.226562 172.191406 C 254.171875 172.027344 254.238281 171.84375 254.390625 171.753906 L 259.832031 168.511719 C 259.984375 168.421875 260.175781 168.445312 260.296875 168.574219 L 264.898438 173.40625 C 266.15625 172.941406 267.441406 172.578125 268.726562 172.3125 L 270.101562 165.800781 C 270.136719 165.628906 270.285156 165.503906 270.460938 165.503906 L 276.800781 165.410156 C 276.800781 165.410156 276.804688 165.410156 276.804688 165.410156 C 276.980469 165.410156 277.128906 165.53125 277.171875 165.699219 L 278.734375 172.179688 C 280.035156 172.410156 281.332031 172.734375 282.589844 173.152344 L 287.046875 168.1875 C 287.164062 168.058594 287.359375 168.027344 287.511719 168.113281 L 293.046875 171.195312 C 293.199219 171.28125 293.273438 171.460938 293.222656 171.628906 L 291.332031 178.015625 C 292.335938 178.855469 293.296875 179.785156 294.183594 180.789062 L 300.53125 178.71875 C 300.695312 178.664062 300.878906 178.734375 300.96875 178.882812 L 304.21875 184.316406 C 304.308594 184.46875 304.28125 184.660156 304.152344 184.78125 L 299.3125 189.371094 C 299.777344 190.632812 300.144531 191.914062 300.410156 193.195312 L 306.933594 194.566406 C 307.105469 194.605469 307.230469 194.753906 307.230469 194.929688 L 307.320312 201.257812 C 307.324219 201.433594 307.203125 201.585938 307.035156 201.625 L 300.542969 203.1875 C 300.3125 204.492188 299.984375 205.785156 299.566406 207.039062 L 304.539062 211.488281 C 304.671875 211.605469 304.703125 211.796875 304.617188 211.953125 L 301.527344 217.476562 C 301.441406 217.628906 301.261719 217.703125 301.09375 217.652344 L 294.699219 215.765625 C 293.859375 216.769531 292.921875 217.726562 291.917969 218.613281 L 293.992188 224.949219 C 294.046875 225.117188 293.980469 225.296875 293.828125 225.386719 L 288.382812 228.632812 C 288.234375 228.722656 288.042969 228.695312 287.921875 228.566406 L 283.320312 223.734375 C 282.058594 224.199219 280.773438 224.566406 279.492188 224.828125 L 278.117188 231.339844 C 278.082031 231.511719 277.933594 231.636719 277.757812 231.640625 L 271.417969 231.730469 C 271.417969 231.730469 271.414062 231.730469 271.414062 231.730469 " fill-opacity="1" fill-rule="nonzero"/><path fill="#caddff" d="M 314.589844 182.1875 C 312.527344 178.734375 313.65625 174.269531 317.113281 172.207031 C 320.570312 170.148438 325.042969 171.277344 327.109375 174.726562 C 329.171875 178.179688 328.039062 182.648438 324.582031 184.707031 C 321.128906 186.765625 316.652344 185.636719 314.589844 182.1875 Z M 327.140625 191.738281 L 329.570312 190.292969 L 328.609375 187.355469 C 329.113281 186.921875 329.574219 186.449219 329.984375 185.945312 L 332.949219 186.820312 L 334.328125 184.351562 L 332.023438 182.289062 C 332.238281 181.667969 332.398438 181.03125 332.507812 180.382812 L 335.515625 179.660156 L 335.472656 176.832031 L 332.449219 176.199219 C 332.328125 175.558594 332.144531 174.925781 331.910156 174.304688 L 334.152344 172.175781 L 332.699219 169.75 L 329.761719 170.710938 C 329.324219 170.207031 328.851562 169.75 328.351562 169.335938 L 329.226562 166.378906 L 326.753906 165 L 324.6875 167.296875 C 324.066406 167.085938 323.425781 166.925781 322.777344 166.816406 L 322.054688 163.816406 L 319.222656 163.855469 L 318.585938 166.875 C 317.945312 167 317.3125 167.179688 316.6875 167.414062 L 314.558594 165.175781 L 312.128906 166.625 L 313.089844 169.558594 C 312.585938 169.996094 312.125 170.464844 311.710938 170.96875 L 308.75 170.09375 L 307.371094 172.5625 L 309.671875 174.625 C 309.460938 175.246094 309.296875 175.882812 309.191406 176.53125 L 306.183594 177.253906 L 306.222656 180.082031 L 309.246094 180.714844 C 309.371094 181.355469 309.550781 181.988281 309.789062 182.609375 L 307.546875 184.738281 L 308.996094 187.164062 L 311.9375 186.203125 C 312.371094 186.707031 312.84375 187.167969 313.347656 187.578125 L 312.472656 190.535156 L 314.945312 191.914062 L 317.007812 189.617188 C 317.632812 189.828125 318.273438 189.988281 318.921875 190.097656 L 319.644531 193.101562 L 322.476562 193.058594 L 323.113281 190.042969 C 323.753906 189.917969 324.386719 189.734375 325.007812 189.5 L 327.140625 191.738281 " fill-opacity="1" fill-rule="nonzero"/><path fill="#000000" d="M 315.253906 180.644531 C 317.207031 183.914062 321.457031 184.984375 324.730469 183.035156 C 326.316406 182.089844 327.441406 180.585938 327.894531 178.800781 C 328.34375 177.011719 328.074219 175.15625 327.125 173.574219 C 325.171875 170.304688 320.921875 169.230469 317.648438 171.183594 C 316.0625 172.128906 314.9375 173.632812 314.488281 175.417969 C 314.035156 177.207031 314.308594 179.0625 315.253906 180.644531 Z M 321.203125 184.757812 C 318.589844 184.757812 316.042969 183.429688 314.609375 181.03125 C 312.441406 177.40625 313.632812 172.699219 317.261719 170.539062 C 319.019531 169.492188 321.082031 169.191406 323.066406 169.691406 C 325.050781 170.191406 326.722656 171.433594 327.769531 173.1875 C 328.820312 174.945312 329.121094 177 328.621094 178.980469 C 328.121094 180.964844 326.875 182.632812 325.117188 183.679688 C 323.890625 184.410156 322.539062 184.757812 321.203125 184.757812 Z M 317.351562 187.894531 C 317.390625 187.894531 317.433594 187.898438 317.472656 187.914062 C 318.074219 188.117188 318.695312 188.273438 319.324219 188.378906 C 319.472656 188.402344 319.589844 188.515625 319.625 188.660156 L 320.28125 191.371094 L 322.511719 191.339844 L 323.085938 188.617188 C 323.117188 188.46875 323.234375 188.355469 323.382812 188.324219 C 323.996094 188.207031 324.613281 188.03125 325.21875 187.800781 C 325.359375 187.746094 325.519531 187.785156 325.621094 187.894531 L 327.546875 189.914062 L 329.460938 188.773438 L 328.59375 186.125 C 328.546875 185.980469 328.589844 185.824219 328.703125 185.726562 C 329.191406 185.300781 329.640625 184.84375 330.035156 184.359375 C 330.132812 184.246094 330.289062 184.195312 330.433594 184.238281 L 333.105469 185.027344 L 334.195312 183.082031 L 332.117188 181.21875 C 332.003906 181.121094 331.960938 180.960938 332.011719 180.820312 C 332.21875 180.21875 332.375 179.597656 332.476562 178.972656 C 332.503906 178.824219 332.613281 178.703125 332.761719 178.667969 L 335.476562 178.015625 L 335.445312 175.789062 L 332.714844 175.21875 C 332.566406 175.1875 332.453125 175.070312 332.421875 174.921875 C 332.304688 174.308594 332.128906 173.691406 331.902344 173.089844 C 331.847656 172.945312 331.882812 172.789062 331.992188 172.683594 L 334.015625 170.765625 L 332.875 168.851562 L 330.21875 169.71875 C 330.078125 169.765625 329.917969 169.722656 329.820312 169.605469 C 329.398438 169.121094 328.9375 168.671875 328.453125 168.277344 C 328.335938 168.179688 328.289062 168.023438 328.332031 167.882812 L 329.121094 165.210938 L 327.171875 164.125 L 325.308594 166.203125 C 325.207031 166.3125 325.050781 166.355469 324.90625 166.304688 C 324.304688 166.097656 323.683594 165.941406 323.058594 165.839844 C 322.910156 165.8125 322.789062 165.703125 322.753906 165.558594 L 322.097656 162.847656 L 319.867188 162.878906 L 319.292969 165.601562 C 319.265625 165.75 319.148438 165.863281 319 165.894531 C 318.382812 166.011719 317.765625 166.1875 317.164062 166.417969 C 317.019531 166.46875 316.863281 166.433594 316.757812 166.324219 L 314.835938 164.300781 L 312.917969 165.445312 L 313.785156 168.09375 C 313.832031 168.238281 313.789062 168.394531 313.675781 168.492188 C 313.1875 168.914062 312.742188 169.375 312.34375 169.859375 C 312.246094 169.972656 312.089844 170.023438 311.949219 169.980469 L 309.273438 169.191406 L 308.183594 171.136719 L 310.265625 172.996094 C 310.375 173.097656 310.417969 173.257812 310.371094 173.398438 C 310.164062 173.996094 310.003906 174.617188 309.902344 175.246094 C 309.875 175.394531 309.765625 175.511719 309.621094 175.546875 L 306.90625 176.203125 L 306.9375 178.429688 L 309.664062 179 C 309.8125 179.03125 309.925781 179.148438 309.957031 179.296875 C 310.074219 179.910156 310.25 180.527344 310.480469 181.128906 C 310.53125 181.269531 310.496094 181.429688 310.386719 181.535156 L 308.363281 183.453125 L 309.503906 185.367188 L 312.160156 184.5 C 312.304688 184.453125 312.460938 184.496094 312.558594 184.609375 C 312.984375 185.097656 313.445312 185.542969 313.929688 185.941406 C 314.042969 186.035156 314.09375 186.191406 314.050781 186.335938 L 313.257812 189.007812 L 315.207031 190.09375 L 317.070312 188.015625 C 317.144531 187.9375 317.246094 187.894531 317.351562 187.894531 Z M 319.984375 192.125 C 319.8125 192.125 319.660156 192.007812 319.621094 191.839844 L 318.953125 189.074219 C 318.449219 188.980469 317.953125 188.855469 317.46875 188.699219 L 315.566406 190.816406 C 315.449219 190.945312 315.257812 190.976562 315.105469 190.894531 L 312.632812 189.515625 C 312.480469 189.429688 312.40625 189.25 312.453125 189.082031 L 313.257812 186.359375 C 312.875 186.03125 312.507812 185.671875 312.160156 185.289062 L 309.453125 186.171875 C 309.289062 186.226562 309.105469 186.160156 309.015625 186.007812 L 307.566406 183.582031 C 307.476562 183.429688 307.5 183.238281 307.628906 183.117188 L 309.691406 181.160156 C 309.519531 180.671875 309.378906 180.179688 309.269531 179.683594 L 306.488281 179.101562 C 306.316406 179.0625 306.191406 178.914062 306.1875 178.738281 L 306.148438 175.914062 C 306.144531 175.738281 306.265625 175.582031 306.4375 175.542969 L 309.203125 174.875 C 309.296875 174.375 309.425781 173.878906 309.582031 173.390625 L 307.460938 171.492188 C 307.328125 171.378906 307.296875 171.183594 307.382812 171.03125 L 308.761719 168.5625 C 308.847656 168.410156 309.03125 168.335938 309.195312 168.386719 L 311.921875 169.191406 C 312.253906 168.808594 312.613281 168.441406 312.996094 168.09375 L 312.113281 165.394531 C 312.058594 165.226562 312.125 165.042969 312.277344 164.953125 L 314.707031 163.507812 C 314.859375 163.417969 315.050781 163.441406 315.171875 163.570312 L 317.132812 165.628906 C 317.621094 165.457031 318.117188 165.316406 318.609375 165.207031 L 319.195312 162.429688 C 319.230469 162.257812 319.382812 162.136719 319.558594 162.132812 L 322.386719 162.089844 C 322.390625 162.089844 322.390625 162.089844 322.394531 162.089844 C 322.566406 162.089844 322.71875 162.210938 322.757812 162.378906 L 323.425781 165.144531 C 323.925781 165.238281 324.425781 165.363281 324.914062 165.519531 L 326.816406 163.402344 C 326.929688 163.269531 327.125 163.238281 327.277344 163.324219 L 329.75 164.703125 C 329.902344 164.789062 329.976562 164.96875 329.925781 165.136719 L 329.121094 167.855469 C 329.503906 168.1875 329.875 168.546875 330.21875 168.929688 L 332.925781 168.046875 C 333.09375 167.992188 333.273438 168.058594 333.363281 168.210938 L 334.816406 170.636719 C 334.90625 170.789062 334.878906 170.980469 334.753906 171.101562 L 332.6875 173.058594 C 332.863281 173.546875 333.003906 174.039062 333.109375 174.535156 L 335.890625 175.117188 C 336.0625 175.15625 336.1875 175.304688 336.191406 175.480469 L 336.230469 178.304688 C 336.234375 178.480469 336.113281 178.632812 335.945312 178.675781 L 333.175781 179.339844 C 333.082031 179.84375 332.957031 180.339844 332.800781 180.828125 L 334.917969 182.722656 C 335.050781 182.839844 335.082031 183.035156 334.996094 183.1875 L 333.617188 185.65625 C 333.53125 185.808594 333.351562 185.882812 333.183594 185.832031 L 330.457031 185.027344 C 330.125 185.410156 329.765625 185.777344 329.382812 186.125 L 330.269531 188.824219 C 330.324219 188.992188 330.253906 189.175781 330.105469 189.265625 L 327.671875 190.710938 C 327.519531 190.800781 327.328125 190.777344 327.207031 190.648438 L 325.246094 188.589844 C 324.761719 188.761719 324.265625 188.902344 323.769531 189.011719 L 323.183594 191.789062 C 323.148438 191.960938 322.996094 192.082031 322.824219 192.085938 L 319.992188 192.125 C 319.988281 192.125 319.988281 192.125 319.984375 192.125 " fill-opacity="1" fill-rule="nonzero"/><path fill="#5479f7" d="M 379.925781 228.878906 C 391.320312 218.390625 385.421875 211.625 385.421875 211.625 C 385.421875 211.625 380.332031 203.394531 362.46875 214.15625 C 344.601562 224.921875 327.308594 220.921875 323.398438 219.304688 C 319.488281 217.691406 305.824219 207.550781 298.125 206.980469 C 293.839844 206.664062 288.710938 209.878906 293.210938 218.574219 C 302.511719 236.550781 327.78125 238.601562 327.78125 238.601562 C 327.78125 238.601562 340.027344 240.902344 352.609375 238.675781 C 352.609375 238.675781 368.53125 239.367188 379.925781 228.878906 " fill-opacity="1" fill-rule="nonzero"/><path fill="#ffffff" d="M 350.351562 231.027344 L 346.316406 233.28125 L 348.332031 237.460938 L 351.671875 235.324219 L 350.351562 231.027344 " fill-opacity="1" fill-rule="nonzero"/><path fill="#000000" d="M 346.808594 233.4375 L 348.484375 236.917969 L 351.230469 235.164062 L 350.128906 231.582031 Z M 348.332031 237.835938 C 348.296875 237.835938 348.261719 237.832031 348.230469 237.824219 C 348.125 237.792969 348.039062 237.71875 347.992188 237.625 L 345.980469 233.445312 C 345.890625 233.265625 345.960938 233.050781 346.132812 232.953125 L 350.167969 230.699219 C 350.269531 230.644531 350.386719 230.636719 350.492188 230.679688 C 350.597656 230.722656 350.679688 230.808594 350.710938 230.917969 L 352.03125 235.214844 C 352.082031 235.375 352.015625 235.550781 351.875 235.640625 L 348.535156 237.777344 C 348.472656 237.816406 348.402344 237.835938 348.332031 237.835938 " fill-opacity="1" fill-rule="nonzero"/><path fill="#000000" d="M 347.902344 232.75 C 347.433594 232.148438 346.519531 232.15625 346.070312 232.765625 L 344.109375 235.421875 L 346.757812 238.824219 L 350.261719 237.214844 C 350.019531 235.707031 348.792969 233.898438 347.902344 232.75 " fill-opacity="1" fill-rule="nonzero"/><path fill="#ffffff" d="M 348.308594 235.574219 L 347.238281 234.492188 C 346.851562 234.101562 346.25 234.027344 345.78125 234.3125 L 345.023438 234.773438 L 344.859375 234.417969 C 344.679688 234.035156 344.246094 233.847656 343.84375 233.980469 C 341.40625 234.792969 333.296875 237.582031 330.585938 239.589844 C 327.378906 241.960938 329.65625 247.238281 335.25 246.703125 C 339.683594 246.277344 345.742188 241.339844 348.066406 239.308594 C 348.523438 238.910156 348.40625 238.171875 347.851562 237.929688 L 347.847656 237.929688 L 348.4375 237.078125 C 348.761719 236.609375 348.707031 235.976562 348.308594 235.574219 " fill-opacity="1" fill-rule="nonzero"/><path fill="#000000" d="M 344.105469 234.3125 C 344.058594 234.3125 344.011719 234.320312 343.964844 234.335938 C 341.550781 235.140625 333.476562 237.917969 330.808594 239.890625 C 329.605469 240.78125 329.1875 242.195312 329.722656 243.578125 C 330.28125 245.035156 332.058594 246.628906 335.214844 246.328125 C 339.523438 245.914062 345.464844 241.082031 347.820312 239.027344 C 347.9375 238.925781 347.992188 238.777344 347.96875 238.621094 C 347.945312 238.464844 347.847656 238.335938 347.699219 238.273438 C 347.597656 238.226562 347.519531 238.136719 347.488281 238.03125 C 347.457031 237.921875 347.472656 237.804688 347.539062 237.714844 L 348.128906 236.863281 C 348.351562 236.546875 348.316406 236.113281 348.039062 235.835938 L 346.972656 234.753906 C 346.707031 234.488281 346.296875 234.4375 345.976562 234.632812 L 345.214844 235.09375 C 345.125 235.148438 345.015625 235.164062 344.910156 235.132812 C 344.808594 235.097656 344.726562 235.027344 344.679688 234.929688 L 344.515625 234.578125 C 344.441406 234.414062 344.277344 234.3125 344.105469 234.3125 Z M 334.445312 247.117188 C 331.386719 247.117188 329.625 245.414062 329.019531 243.847656 C 328.371094 242.160156 328.898438 240.371094 330.363281 239.289062 C 333.117188 237.25 341.289062 234.4375 343.726562 233.625 C 344.300781 233.433594 344.917969 233.695312 345.183594 234.234375 L 345.585938 233.992188 C 346.207031 233.617188 346.996094 233.714844 347.503906 234.230469 L 348.574219 235.308594 C 349.101562 235.84375 349.175781 236.675781 348.746094 237.292969 L 348.367188 237.832031 C 348.546875 238.011719 348.667969 238.246094 348.710938 238.503906 C 348.773438 238.914062 348.625 239.320312 348.3125 239.589844 C 345.902344 241.695312 339.8125 246.640625 335.285156 247.074219 C 334.996094 247.101562 334.714844 247.117188 334.445312 247.117188 " fill-opacity="1" fill-rule="nonzero"/><path fill="#000000" d="M 341.351562 241.714844 C 341.207031 241.714844 341.074219 241.636719 341.011719 241.5 L 339.199219 237.695312 C 339.109375 237.507812 339.191406 237.285156 339.375 237.199219 C 339.566406 237.109375 339.789062 237.1875 339.875 237.375 L 341.6875 241.179688 C 341.777344 241.367188 341.699219 241.589844 341.511719 241.679688 C 341.460938 241.703125 341.40625 241.714844 341.351562 241.714844 " fill-opacity="1" fill-rule="nonzero"/><path fill="#000000" d="M 332.953125 231.066406 C 332.867188 231.066406 332.777344 231.035156 332.707031 230.972656 C 332.550781 230.835938 332.535156 230.601562 332.671875 230.445312 L 333 230.074219 L 314.476562 215.804688 C 314.3125 215.679688 314.28125 215.441406 314.410156 215.277344 C 314.535156 215.117188 314.773438 215.085938 314.9375 215.210938 L 333.777344 229.722656 C 333.855469 229.789062 333.910156 229.882812 333.917969 229.984375 C 333.929688 230.089844 333.894531 230.191406 333.828125 230.269531 L 333.234375 230.941406 C 333.160156 231.023438 333.058594 231.066406 332.953125 231.066406 " fill-opacity="1" fill-rule="nonzero"/><path fill="#ffffff" d="M 332.304688 231.863281 L 340.503906 234.804688 L 339.207031 239.257812 L 329.308594 236.5625 L 332.304688 231.863281 " fill-opacity="1" fill-rule="nonzero"/><path fill="#000000" d="M 329.898438 236.335938 L 338.949219 238.800781 L 340.046875 235.039062 L 332.460938 232.320312 Z M 339.207031 239.632812 C 339.175781 239.632812 339.140625 239.628906 339.109375 239.621094 L 329.207031 236.925781 C 329.09375 236.894531 329 236.808594 328.957031 236.699219 C 328.914062 236.585938 328.925781 236.460938 328.988281 236.363281 L 331.988281 231.664062 C 332.082031 231.515625 332.265625 231.453125 332.429688 231.511719 L 340.632812 234.453125 C 340.820312 234.519531 340.921875 234.71875 340.867188 234.910156 L 339.566406 239.363281 C 339.519531 239.527344 339.371094 239.632812 339.207031 239.632812 " fill-opacity="1" fill-rule="nonzero"/><path fill="#000000" d="M 338.855469 234.539062 C 339.21875 233.871094 340.117188 233.726562 340.664062 234.257812 L 343.035156 236.550781 L 340.984375 240.34375 L 337.265625 239.332031 C 337.253906 237.804688 338.164062 235.820312 338.855469 234.539062 " fill-opacity="1" fill-rule="nonzero"/><path fill="#ffffff" d="M 338.917969 237.390625 L 339.796875 236.152344 C 340.113281 235.703125 340.695312 235.53125 341.203125 235.734375 L 342.027344 236.0625 L 342.132812 235.6875 C 342.246094 235.28125 342.640625 235.023438 343.058594 235.089844 C 345.601562 235.488281 354.058594 236.90625 357.0625 238.441406 C 360.617188 240.253906 359.242188 245.835938 353.636719 246.222656 C 349.191406 246.53125 342.402344 242.65625 339.773438 241.039062 C 339.257812 240.71875 339.25 239.972656 339.757812 239.640625 L 339.765625 239.640625 L 339.039062 238.898438 C 338.640625 238.492188 338.589844 237.859375 338.917969 237.390625 " fill-opacity="1" fill-rule="nonzero"/><path fill="#000000" d="M 339.226562 237.609375 C 339.003906 237.925781 339.035156 238.359375 339.308594 238.636719 L 340.03125 239.378906 C 340.109375 239.457031 340.148438 239.566406 340.136719 239.679688 C 340.125 239.789062 340.066406 239.890625 339.972656 239.949219 C 339.832031 240.042969 339.757812 240.183594 339.757812 240.34375 C 339.757812 240.5 339.839844 240.636719 339.972656 240.71875 C 342.632812 242.359375 349.292969 246.148438 353.609375 245.847656 C 356.773438 245.628906 358.261719 243.765625 358.574219 242.234375 C 358.871094 240.78125 358.226562 239.453125 356.890625 238.773438 C 353.9375 237.269531 345.511719 235.855469 343 235.457031 C 342.773438 235.425781 342.554688 235.5625 342.492188 235.785156 L 342.390625 236.164062 C 342.363281 236.265625 342.292969 236.351562 342.195312 236.398438 C 342.101562 236.445312 341.988281 236.453125 341.890625 236.410156 L 341.0625 236.082031 C 340.714844 235.941406 340.320312 236.058594 340.105469 236.367188 Z M 353.125 246.617188 C 348.605469 246.617188 342.195312 242.972656 339.578125 241.355469 C 339.226562 241.140625 339.011719 240.765625 339.007812 240.351562 C 339.003906 240.089844 339.085938 239.839844 339.234375 239.632812 L 338.769531 239.160156 C 338.246094 238.625 338.179688 237.789062 338.613281 237.175781 L 339.492188 235.933594 C 339.910156 235.34375 340.667969 235.117188 341.34375 235.386719 L 341.777344 235.558594 C 341.953125 234.984375 342.519531 234.625 343.117188 234.71875 C 345.65625 235.121094 354.179688 236.550781 357.234375 238.105469 C 358.855469 238.933594 359.671875 240.613281 359.308594 242.382812 C 358.945312 244.171875 357.246094 246.347656 353.660156 246.597656 C 353.484375 246.609375 353.308594 246.617188 353.125 246.617188 " fill-opacity="1" fill-rule="nonzero"/><path fill="#000000" d="M 346.734375 242.3125 C 346.699219 242.3125 346.664062 242.308594 346.632812 242.296875 C 346.429688 242.238281 346.316406 242.03125 346.375 241.835938 L 347.53125 237.785156 C 347.589844 237.585938 347.796875 237.46875 347.996094 237.527344 C 348.195312 237.582031 348.3125 237.789062 348.253906 237.992188 L 347.097656 242.039062 C 347.046875 242.203125 346.898438 242.3125 346.734375 242.3125 " fill-opacity="1" fill-rule="nonzero"/><path fill="#000000" d="M 353.316406 245.429688 C 353.191406 245.429688 353.066406 245.367188 352.996094 245.253906 C 352.886719 245.078125 352.941406 244.847656 353.117188 244.738281 C 357.132812 242.226562 355.648438 239.195312 355.582031 239.070312 C 355.488281 238.886719 355.5625 238.660156 355.746094 238.566406 C 355.933594 238.472656 356.160156 238.546875 356.253906 238.730469 C 356.273438 238.769531 358.105469 242.503906 353.515625 245.375 C 353.453125 245.414062 353.382812 245.429688 353.316406 245.429688 " fill-opacity="1" fill-rule="nonzero"/><path fill="#000000" d="M 350.097656 230.394531 C 349.921875 230.394531 349.765625 230.273438 349.730469 230.097656 L 349.445312 228.699219 C 349.417969 228.5625 349.46875 228.417969 349.578125 228.332031 C 349.625 228.292969 354.21875 224.617188 361.996094 218.90625 C 369.769531 213.195312 371.472656 212.03125 371.488281 212.019531 C 371.660156 211.902344 371.890625 211.945312 372.007812 212.117188 C 372.125 212.285156 372.082031 212.519531 371.910156 212.636719 C 371.894531 212.648438 370.195312 213.816406 362.441406 219.507812 C 355.53125 224.582031 351.144531 228.046875 350.226562 228.773438 L 350.464844 229.945312 C 350.507812 230.152344 350.375 230.347656 350.171875 230.386719 C 350.148438 230.394531 350.121094 230.394531 350.097656 230.394531 " fill-opacity="1" fill-rule="nonzero"/><path fill="#000000" d="M 309.773438 202.96875 C 310.359375 200.351562 314.097656 190.699219 316.917969 183.585938 C 319.167969 177.910156 324.609375 173.820312 331.085938 172.996094 C 335.910156 172.382812 341.136719 172.261719 346.160156 172.65625 C 354.542969 173.316406 361.742188 178.4375 364.511719 185.777344 C 367.007812 192.390625 369.730469 200.507812 369.792969 204.621094 C 369.855469 209.003906 367.207031 213.1875 364.3125 216.441406 C 360.664062 220.542969 355.457031 223.097656 349.832031 223.617188 C 341.800781 224.363281 329.265625 225.105469 323.570312 223.25 C 314.839844 220.398438 308.355469 209.304688 309.773438 202.96875 " fill-opacity="1" fill-rule="nonzero"/><path fill="#ffffff" d="M 321.078125 190.164062 L 359.035156 190.164062 C 360.757812 190.164062 362.15625 191.558594 362.15625 193.277344 L 362.15625 218.332031 C 362.15625 220.054688 360.757812 221.449219 359.035156 221.449219 L 321.078125 221.449219 C 319.355469 221.449219 317.960938 220.054688 317.960938 218.332031 L 317.960938 193.277344 C 317.960938 191.558594 319.355469 190.164062 321.078125 190.164062 " fill-opacity="1" fill-rule="nonzero"/><path fill="#000000" d="M 321.078125 190.539062 C 319.566406 190.539062 318.335938 191.765625 318.335938 193.277344 L 318.335938 218.332031 C 318.335938 219.84375 319.566406 221.074219 321.078125 221.074219 L 359.035156 221.074219 C 360.546875 221.074219 361.777344 219.84375 361.777344 218.332031 L 361.777344 193.277344 C 361.777344 191.765625 360.546875 190.539062 359.035156 190.539062 Z M 359.035156 221.820312 L 321.078125 221.820312 C 319.152344 221.820312 317.585938 220.257812 317.585938 218.332031 L 317.585938 193.277344 C 317.585938 191.355469 319.152344 189.789062 321.078125 189.789062 L 359.035156 189.789062 C 360.960938 189.789062 362.527344 191.355469 362.527344 193.277344 L 362.527344 218.332031 C 362.527344 220.257812 360.960938 221.820312 359.035156 221.820312 " fill-opacity="1" fill-rule="nonzero"/><path fill="#caddff" d="M 318.5625 221.597656 L 362.195312 221.597656 C 363.28125 221.597656 364.160156 222.476562 364.160156 223.558594 C 364.160156 224.640625 363.28125 225.519531 362.195312 225.519531 L 318.5625 225.519531 C 317.480469 225.519531 316.601562 224.640625 316.601562 223.558594 C 316.601562 222.476562 317.480469 221.597656 318.5625 221.597656 " fill-opacity="1" fill-rule="nonzero"/><path fill="#000000" d="M 318.5625 221.972656 C 317.6875 221.972656 316.976562 222.683594 316.976562 223.558594 C 316.976562 224.433594 317.6875 225.144531 318.5625 225.144531 L 362.195312 225.144531 C 363.074219 225.144531 363.785156 224.433594 363.785156 223.558594 C 363.785156 222.683594 363.074219 221.972656 362.195312 221.972656 Z M 362.195312 225.894531 L 318.5625 225.894531 C 317.273438 225.894531 316.222656 224.847656 316.222656 223.558594 C 316.222656 222.269531 317.273438 221.222656 318.5625 221.222656 L 362.195312 221.222656 C 363.484375 221.222656 364.535156 222.269531 364.535156 223.558594 C 364.535156 224.847656 363.484375 225.894531 362.195312 225.894531 " fill-opacity="1" fill-rule="nonzero"/><path fill="#ffffff" d="M 336.699219 172.847656 L 336.289062 167.0625 C 336.015625 167.042969 335.824219 167.03125 335.765625 167.03125 C 334.148438 167.011719 333.625 166.488281 333.484375 165.164062 C 333.398438 164.335938 333.367188 163.101562 333.773438 161.5625 C 333.816406 161.398438 333.804688 161.222656 333.738281 161.066406 L 333.464844 160.421875 C 333.40625 160.207031 333.480469 159.980469 333.648438 159.839844 L 333.796875 159.71875 C 334.324219 159.289062 334.761719 158.757812 335.113281 158.167969 C 335.4375 157.625 335.988281 156.609375 336.363281 156.429688 C 337.425781 155.925781 341.734375 153.671875 344.144531 157.605469 C 346.023438 160.671875 342.953125 164.894531 341.839844 166.277344 C 341.570312 166.609375 343.660156 173.164062 343.660156 173.164062 L 346.359375 173.820312 C 346.359375 173.820312 344.277344 177.515625 337.941406 175.984375 C 333.429688 174.898438 334.148438 173.222656 334.148438 173.222656 L 336.699219 172.847656 " fill-opacity="1" fill-rule="nonzero"/><path fill="#000000" d="M 334.484375 173.550781 C 334.492188 173.632812 334.523438 173.742188 334.59375 173.867188 C 334.808594 174.265625 335.542969 175.023438 338.03125 175.621094 C 342.761719 176.765625 344.976562 174.925781 345.726562 174.050781 L 343.570312 173.53125 C 343.441406 173.5 343.339844 173.40625 343.300781 173.28125 C 341.148438 166.535156 341.40625 166.214844 341.546875 166.042969 C 342.796875 164.488281 345.523438 160.578125 343.824219 157.800781 C 341.671875 154.289062 337.886719 156.113281 336.640625 156.714844 L 336.527344 156.769531 C 336.304688 156.875 335.800781 157.742188 335.582031 158.109375 C 335.53125 158.199219 335.480469 158.285156 335.4375 158.359375 C 335.046875 159.011719 334.574219 159.566406 334.035156 160.007812 L 333.886719 160.128906 C 333.835938 160.171875 333.8125 160.238281 333.820312 160.304688 L 334.085938 160.917969 C 334.183594 161.148438 334.199219 161.410156 334.136719 161.65625 C 333.828125 162.832031 333.738281 163.964844 333.859375 165.125 C 333.972656 166.1875 334.261719 166.636719 335.769531 166.65625 C 335.832031 166.65625 336.027344 166.667969 336.316406 166.6875 C 336.503906 166.699219 336.652344 166.847656 336.664062 167.035156 L 337.074219 172.820312 C 337.085938 173.015625 336.949219 173.1875 336.753906 173.214844 Z M 340.863281 176.738281 C 339.980469 176.738281 338.980469 176.625 337.855469 176.351562 C 335.695312 175.828125 334.367188 175.097656 333.902344 174.171875 C 333.605469 173.574219 333.78125 173.125 333.800781 173.074219 C 333.855469 172.953125 333.964844 172.871094 334.09375 172.851562 L 336.300781 172.527344 L 335.9375 167.414062 C 335.851562 167.410156 335.789062 167.40625 335.761719 167.40625 C 334.019531 167.382812 333.277344 166.765625 333.113281 165.203125 C 332.980469 163.949219 333.078125 162.726562 333.410156 161.46875 C 333.433594 161.378906 333.425781 161.289062 333.394531 161.214844 L 333.117188 160.566406 C 333.113281 160.550781 333.105469 160.535156 333.101562 160.515625 C 333.003906 160.164062 333.125 159.785156 333.410156 159.550781 L 333.558594 159.429688 C 334.03125 159.042969 334.449219 158.554688 334.792969 157.976562 C 334.835938 157.902344 334.882812 157.820312 334.933594 157.734375 C 335.410156 156.917969 335.804688 156.28125 336.203125 156.09375 L 336.316406 156.039062 C 340.058594 154.234375 342.800781 154.695312 344.464844 157.410156 C 346.386719 160.550781 343.5625 164.71875 342.1875 166.441406 C 342.207031 167.035156 343.070312 170.074219 343.953125 172.851562 L 346.449219 173.453125 C 346.5625 173.480469 346.660156 173.5625 346.707031 173.667969 C 346.753906 173.777344 346.746094 173.898438 346.6875 174 C 346.613281 174.132812 345.085938 176.734375 340.863281 176.738281 " fill-opacity="1" fill-rule="nonzero"/><path fill="#000000" d="M 342.816406 152.605469 C 341.648438 152.355469 340.304688 152.535156 339.738281 152.328125 C 338.824219 151.992188 338.800781 150.898438 337.535156 150.589844 C 336.003906 150.21875 335.363281 150.871094 334.765625 151.78125 C 334.667969 151.933594 334.578125 152.101562 334.507812 152.292969 C 333.546875 154.871094 334.761719 156.128906 335.300781 156.535156 C 335.300781 156.535156 338.746094 158.3125 339.335938 158.820312 C 339.886719 159.296875 340.523438 160.421875 340.125 162.035156 C 340.070312 162.246094 340.160156 162.460938 340.339844 162.566406 C 340.546875 162.691406 340.8125 162.632812 340.957031 162.425781 C 341.402344 161.777344 342.382812 160.527344 343.078125 160.820312 C 343.953125 161.195312 343.679688 163.8125 341.75 164.113281 C 341.15625 164.207031 340.675781 164.8125 340.734375 165.429688 C 340.773438 165.835938 341.15625 166.328125 341.722656 166.457031 C 342.066406 166.535156 342.410156 166.394531 342.714844 166.203125 C 343.972656 165.398438 347.527344 161.996094 347.96875 158.945312 C 348.5 155.269531 344.371094 152.941406 342.816406 152.605469 " fill-opacity="1" fill-rule="nonzero"/><path fill="#000000" d="M 335.855469 167.351562 C 335.667969 167.351562 335.515625 167.203125 335.507812 167.015625 C 335.5 166.824219 335.652344 166.664062 335.84375 166.65625 C 335.855469 166.65625 337.078125 166.597656 337.914062 165.890625 C 338.058594 165.765625 338.28125 165.785156 338.40625 165.929688 C 338.53125 166.078125 338.511719 166.296875 338.367188 166.421875 C 337.34375 167.289062 335.929688 167.347656 335.867188 167.351562 C 335.863281 167.351562 335.859375 167.351562 335.855469 167.351562 " fill-opacity="1" fill-rule="nonzero"/><path fill="#ffffff" d="M 257.363281 103.988281 L 256.691406 103.988281 L 256.691406 89.65625 L 257.363281 89.65625 C 261.0625 89.65625 264.058594 92.648438 264.058594 96.339844 L 264.058594 97.304688 C 264.058594 100.996094 261.0625 103.988281 257.363281 103.988281 " fill-opacity="1" fill-rule="nonzero"/><path fill="#000000" d="M 257.066406 103.613281 L 257.363281 103.613281 C 260.847656 103.613281 263.683594 100.785156 263.683594 97.304688 L 263.683594 96.339844 C 263.683594 92.859375 260.847656 90.03125 257.363281 90.03125 L 257.066406 90.03125 Z M 257.363281 104.363281 L 256.691406 104.363281 C 256.484375 104.363281 256.316406 104.195312 256.316406 103.988281 L 256.316406 89.65625 C 256.316406 89.449219 256.484375 89.28125 256.691406 89.28125 L 257.363281 89.28125 C 261.261719 89.28125 264.433594 92.445312 264.433594 96.339844 L 264.433594 97.304688 C 264.433594 101.195312 261.261719 104.363281 257.363281 104.363281 " fill-opacity="1" fill-rule="nonzero"/><path fill="#ffffff" d="M 191.199219 103.988281 L 191.871094 103.988281 L 191.871094 89.65625 L 191.199219 89.65625 C 187.503906 89.65625 184.503906 92.648438 184.503906 96.339844 L 184.503906 97.304688 C 184.503906 100.996094 187.503906 103.988281 191.199219 103.988281 " fill-opacity="1" fill-rule="nonzero"/><path fill="#000000" d="M 191.199219 90.03125 C 187.714844 90.03125 184.882812 92.859375 184.882812 96.339844 L 184.882812 97.304688 C 184.882812 100.785156 187.714844 103.613281 191.199219 103.613281 L 191.496094 103.613281 L 191.496094 90.03125 Z M 191.871094 104.363281 L 191.199219 104.363281 C 187.300781 104.363281 184.128906 101.195312 184.128906 97.304688 L 184.128906 96.339844 C 184.128906 92.445312 187.300781 89.28125 191.199219 89.28125 L 191.871094 89.28125 C 192.078125 89.28125 192.246094 89.449219 192.246094 89.65625 L 192.246094 103.988281 C 192.246094 104.195312 192.078125 104.363281 191.871094 104.363281 " fill-opacity="1" fill-rule="nonzero"/><path fill="#ffffff" d="M 189.550781 96.230469 C 189.550781 80.828125 205.101562 64.894531 224.28125 64.894531 C 243.464844 64.894531 259.011719 80.828125 259.011719 96.230469 C 259.011719 111.632812 243.464844 120.671875 224.28125 120.671875 C 205.101562 120.671875 189.550781 111.632812 189.550781 96.230469 " fill-opacity="1" fill-rule="nonzero"/><path fill="#000000" d="M 224.28125 65.269531 C 204.617188 65.269531 189.925781 81.617188 189.925781 96.230469 C 189.925781 103.441406 193.386719 109.554688 199.933594 113.914062 C 206.113281 118.03125 214.761719 120.296875 224.28125 120.296875 C 233.804688 120.296875 242.453125 118.03125 248.632812 113.914062 C 255.179688 109.554688 258.636719 103.441406 258.636719 96.230469 C 258.636719 81.617188 243.945312 65.269531 224.28125 65.269531 Z M 224.28125 121.046875 C 214.613281 121.046875 205.816406 118.734375 199.515625 114.539062 C 192.75 110.035156 189.175781 103.703125 189.175781 96.230469 C 189.175781 88.578125 192.925781 80.660156 199.464844 74.515625 C 206.320312 68.070312 215.132812 64.519531 224.28125 64.519531 C 233.429688 64.519531 242.242188 68.070312 249.097656 74.515625 C 255.636719 80.660156 259.386719 88.578125 259.386719 96.230469 C 259.386719 103.703125 255.8125 110.035156 249.050781 114.539062 C 242.746094 118.734375 233.949219 121.046875 224.28125 121.046875 " fill-opacity="1" fill-rule="nonzero"/><path fill="#ffffff" d="M 232.980469 125.296875 L 215.582031 125.296875 C 207.957031 125.296875 201.773438 131.46875 201.773438 139.085938 C 201.773438 144.113281 202.265625 149.132812 203.242188 154.066406 L 205.742188 166.714844 C 207.492188 175.554688 215.257812 181.925781 224.28125 181.925781 C 233.308594 181.925781 241.070312 175.554688 242.820312 166.714844 L 245.320312 154.066406 C 246.296875 149.132812 246.789062 144.113281 246.789062 139.085938 C 246.789062 131.46875 240.605469 125.296875 232.980469 125.296875 " fill-opacity="1" fill-rule="nonzero"/><path fill="#000000" d="M 215.582031 125.671875 C 208.175781 125.671875 202.148438 131.6875 202.148438 139.085938 C 202.148438 144.078125 202.640625 149.09375 203.609375 153.996094 L 206.113281 166.644531 C 207.820312 175.28125 215.460938 181.550781 224.28125 181.550781 C 233.101562 181.550781 240.742188 175.28125 242.453125 166.644531 L 244.953125 153.996094 C 245.921875 149.09375 246.414062 144.078125 246.414062 139.085938 C 246.414062 131.6875 240.386719 125.671875 232.980469 125.671875 Z M 224.28125 182.300781 C 215.105469 182.300781 207.152344 175.777344 205.375 166.789062 L 202.875 154.140625 C 201.894531 149.191406 201.398438 144.128906 201.398438 139.085938 C 201.398438 131.277344 207.761719 124.921875 215.582031 124.921875 L 232.980469 124.921875 C 240.800781 124.921875 247.164062 131.277344 247.164062 139.085938 C 247.164062 144.128906 246.667969 149.191406 245.691406 154.140625 L 243.1875 166.789062 C 241.410156 175.777344 233.460938 182.300781 224.28125 182.300781 " fill-opacity="1" fill-rule="nonzero"/><path fill="#5479f7" d="M 224.921875 155.84375 L 223.644531 155.84375 C 218.765625 155.84375 214.8125 151.894531 214.8125 147.023438 L 214.8125 125.296875 L 233.753906 125.296875 L 233.753906 147.023438 C 233.753906 151.894531 229.796875 155.84375 224.921875 155.84375 " fill-opacity="1" fill-rule="nonzero"/><path fill="#000000" d="M 233.753906 125.671875 L 214.8125 125.671875 C 214.605469 125.671875 214.4375 125.503906 214.4375 125.296875 C 214.4375 125.089844 214.605469 124.921875 214.8125 124.921875 L 233.753906 124.921875 C 233.960938 124.921875 234.128906 125.089844 234.128906 125.296875 C 234.128906 125.503906 233.960938 125.671875 233.753906 125.671875 " fill-opacity="1" fill-rule="nonzero"/><path fill="#000000" d="M 247.632812 91.605469 L 214.1875 91.605469 C 210.710938 91.605469 207.894531 94.636719 207.894531 98.375 L 207.894531 102.792969 C 207.894531 105.640625 209.421875 108.664062 212.046875 109.15625 C 221.316406 110.894531 240.503906 110.894531 249.769531 109.15625 C 252.398438 108.664062 253.921875 105.640625 253.921875 102.792969 L 253.921875 98.375 C 253.921875 94.636719 251.105469 91.605469 247.632812 91.605469 " fill-opacity="1" fill-rule="nonzero"/><path fill="#5479f7" d="M 223.050781 100.492188 C 223.050781 101.746094 222.105469 102.761719 220.941406 102.761719 C 219.78125 102.761719 218.835938 101.746094 218.835938 100.492188 C 218.835938 99.242188 219.78125 98.226562 220.941406 98.226562 C 222.105469 98.226562 223.050781 99.242188 223.050781 100.492188 " fill-opacity="1" fill-rule="nonzero"/><path fill="#5479f7" d="M 245.476562 100.492188 C 245.476562 101.746094 244.53125 102.761719 243.367188 102.761719 C 242.203125 102.761719 241.257812 101.746094 241.257812 100.492188 C 241.257812 99.242188 242.203125 98.226562 243.367188 98.226562 C 244.53125 98.226562 245.476562 99.242188 245.476562 100.492188 " fill-opacity="1" fill-rule="nonzero"/><path fill="#ffffff" d="M 217.976562 144.003906 C 217.878906 144.003906 217.785156 143.964844 217.710938 143.894531 C 217.5625 143.746094 217.5625 143.507812 217.710938 143.363281 L 230.324219 130.769531 C 230.46875 130.625 230.707031 130.625 230.855469 130.769531 C 231 130.914062 231 131.152344 230.855469 131.300781 L 218.242188 143.894531 C 218.167969 143.964844 218.070312 144.003906 217.976562 144.003906 " fill-opacity="1" fill-rule="nonzero"/><path fill="#ffffff" d="M 220.734375 149.265625 C 220.640625 149.265625 220.542969 149.230469 220.46875 149.15625 C 220.324219 149.011719 220.324219 148.773438 220.46875 148.628906 L 227.5625 141.542969 C 227.710938 141.398438 227.949219 141.398438 228.09375 141.542969 C 228.242188 141.691406 228.242188 141.929688 228.09375 142.074219 L 221 149.15625 C 220.925781 149.230469 220.832031 149.265625 220.734375 149.265625 " fill-opacity="1" fill-rule="nonzero"/><path fill="#ffffff" d="M 264.351562 243.933594 C 243.855469 243.933594 227.140625 238.875 226.929688 238.808594 C 226.730469 238.746094 226.621094 238.539062 226.679688 238.339844 C 226.742188 238.140625 226.953125 238.035156 227.148438 238.09375 C 227.417969 238.171875 254.167969 246.269531 281.445312 241.882812 C 281.648438 241.847656 281.84375 241.992188 281.875 242.195312 C 281.90625 242.398438 281.769531 242.589844 281.5625 242.625 C 275.71875 243.566406 269.894531 243.933594 264.351562 243.933594 " fill-opacity="1" fill-rule="nonzero"/><g clip-path="url(#28048a3209)"><path fill="#181930" d="M 424.027344 215.933594 C 424.027344 225.761719 421.722656 233.730469 411.90625 233.730469 L 365.5 233.730469 C 355.683594 233.730469 355.335938 225.761719 355.335938 215.933594 L 355.335938 139.867188 C 355.335938 130.039062 355.683594 122.070312 365.5 122.070312 L 411.90625 122.070312 C 421.722656 122.070312 424.027344 130.039062 424.027344 139.867188 Z M 424.027344 215.933594 " fill-opacity="1" fill-rule="nonzero"/></g><path fill="#bad5f1" d="M 419.6875 203.445312 C 419.6875 211.027344 417.675781 217.175781 409.097656 217.175781 L 368.558594 217.175781 C 359.980469 217.175781 359.675781 211.027344 359.675781 203.445312 L 359.675781 144.746094 C 359.675781 137.160156 359.980469 131.015625 368.558594 131.015625 L 409.097656 131.015625 C 417.675781 131.015625 419.6875 137.160156 419.6875 144.746094 Z M 419.6875 203.445312 " fill-opacity="1" fill-rule="nonzero"/><path fill="#0d0e18" d="M 395.953125 225.546875 C 395.953125 228.089844 393.894531 230.152344 391.355469 230.152344 L 388.011719 230.152344 C 385.472656 230.152344 383.414062 228.089844 383.414062 225.546875 C 383.414062 223.003906 385.472656 220.945312 388.011719 220.945312 L 391.355469 220.945312 C 393.894531 220.941406 395.953125 223.003906 395.953125 225.546875 Z M 395.953125 225.546875 " fill-opacity="1" fill-rule="nonzero"/><path fill="#0d0e18" d="M 399.050781 126.902344 C 399.050781 127.457031 398.601562 127.910156 398.042969 127.910156 L 381.320312 127.910156 C 380.765625 127.910156 380.316406 127.457031 380.316406 126.902344 C 380.316406 126.347656 380.765625 125.898438 381.320312 125.898438 L 398.042969 125.898438 C 398.601562 125.898438 399.050781 126.347656 399.050781 126.902344 Z M 399.050781 126.902344 " fill-opacity="1" fill-rule="nonzero"/><path fill="#f8b051" d="M 405.136719 126.902344 C 405.136719 127.035156 405.109375 127.164062 405.058594 127.289062 C 405.007812 127.410156 404.9375 127.519531 404.839844 127.613281 C 404.746094 127.707031 404.640625 127.78125 404.515625 127.832031 C 404.394531 127.882812 404.265625 127.910156 404.132812 127.910156 C 403.996094 127.910156 403.871094 127.882812 403.746094 127.832031 C 403.625 127.78125 403.515625 127.707031 403.421875 127.613281 C 403.328125 127.519531 403.253906 127.410156 403.203125 127.289062 C 403.152344 127.164062 403.125 127.035156 403.125 126.902344 C 403.125 126.769531 403.152344 126.640625 403.203125 126.519531 C 403.253906 126.394531 403.328125 126.285156 403.421875 126.191406 C 403.515625 126.097656 403.625 126.023438 403.746094 125.972656 C 403.871094 125.921875 403.996094 125.898438 404.132812 125.898438 C 404.265625 125.898438 404.394531 125.921875 404.515625 125.972656 C 404.640625 126.023438 404.746094 126.097656 404.839844 126.191406 C 404.9375 126.285156 405.007812 126.394531 405.058594 126.519531 C 405.109375 126.640625 405.136719 126.769531 405.136719 126.902344 Z M 405.136719 126.902344 " fill-opacity="1" fill-rule="nonzero"/><path fill="#ffffff" d="M 413.84375 196.664062 C 413.847656 197.671875 413.03125 198.488281 412.027344 198.488281 L 366.109375 198.519531 C 365.105469 198.519531 364.292969 197.707031 364.292969 196.699219 L 364.289062 194.402344 C 364.289062 193.394531 365.101562 192.582031 366.105469 192.582031 L 412.023438 192.546875 C 413.03125 192.546875 413.84375 193.363281 413.84375 194.367188 Z M 413.84375 196.664062 " fill-opacity="1" fill-rule="nonzero"/><path fill="#b2b2b2" d="M 412.023438 192.546875 L 407.25 192.550781 L 407.253906 198.492188 L 412.027344 198.488281 C 413.03125 198.488281 413.847656 197.671875 413.84375 196.664062 L 413.84375 194.367188 C 413.84375 193.363281 413.027344 192.546875 412.023438 192.546875 Z M 412.023438 192.546875 " fill-opacity="1" fill-rule="nonzero"/><path fill="#b2b2b2" d="M 369.308594 197.269531 C 369.308594 197.359375 369.234375 197.433594 369.144531 197.433594 C 369.054688 197.433594 368.984375 197.359375 368.980469 197.269531 L 368.980469 194.152344 C 368.980469 194.0625 369.054688 193.988281 369.144531 193.988281 C 369.234375 193.988281 369.308594 194.0625 369.308594 194.152344 Z M 369.308594 197.269531 " fill-opacity="1" fill-rule="nonzero"/><path fill="#b2b2b2" d="M 370.703125 195.546875 C 370.792969 195.546875 370.867188 195.621094 370.867188 195.710938 C 370.863281 195.800781 370.792969 195.875 370.703125 195.875 L 367.589844 195.875 C 367.5 195.875 367.425781 195.800781 367.425781 195.710938 C 367.425781 195.621094 367.5 195.546875 367.589844 195.546875 Z M 370.703125 195.546875 " fill-opacity="1" fill-rule="nonzero"/><path fill="#b2b2b2" d="M 370.128906 194.492188 C 370.191406 194.429688 370.296875 194.429688 370.359375 194.492188 C 370.425781 194.558594 370.425781 194.660156 370.359375 194.726562 L 368.160156 196.929688 C 368.097656 196.996094 367.992188 196.996094 367.929688 196.929688 C 367.867188 196.867188 367.867188 196.761719 367.929688 196.699219 Z M 370.128906 194.492188 " fill-opacity="1" fill-rule="nonzero"/><path fill="#b2b2b2" d="M 367.929688 194.726562 C 367.863281 194.664062 367.863281 194.558594 367.929688 194.492188 C 367.992188 194.429688 368.097656 194.429688 368.160156 194.492188 L 370.363281 196.695312 C 370.425781 196.761719 370.425781 196.863281 370.363281 196.925781 C 370.296875 196.992188 370.195312 196.992188 370.132812 196.929688 Z M 367.929688 194.726562 " fill-opacity="1" fill-rule="nonzero"/><path fill="#b2b2b2" d="M 373.667969 197.265625 C 373.667969 197.355469 373.59375 197.429688 373.503906 197.429688 C 373.414062 197.429688 373.339844 197.359375 373.339844 197.265625 L 373.339844 194.152344 C 373.339844 194.058594 373.410156 193.988281 373.5 193.988281 C 373.589844 193.988281 373.664062 194.0625 373.664062 194.152344 Z M 373.667969 197.265625 " fill-opacity="1" fill-rule="nonzero"/><path fill="#b2b2b2" d="M 375.058594 195.542969 C 375.148438 195.542969 375.222656 195.617188 375.222656 195.707031 C 375.222656 195.796875 375.148438 195.871094 375.058594 195.871094 L 371.945312 195.875 C 371.855469 195.875 371.78125 195.800781 371.785156 195.710938 C 371.785156 195.617188 371.859375 195.546875 371.945312 195.546875 Z M 375.058594 195.542969 " fill-opacity="1" fill-rule="nonzero"/><path fill="#b2b2b2" d="M 374.488281 194.488281 C 374.550781 194.425781 374.652344 194.425781 374.71875 194.488281 C 374.78125 194.554688 374.78125 194.65625 374.71875 194.722656 L 372.519531 196.925781 C 372.453125 196.992188 372.351562 196.992188 372.289062 196.925781 C 372.222656 196.863281 372.222656 196.757812 372.289062 196.695312 Z M 374.488281 194.488281 " fill-opacity="1" fill-rule="nonzero"/><path fill="#b2b2b2" d="M 372.285156 194.722656 C 372.222656 194.660156 372.222656 194.554688 372.285156 194.492188 C 372.351562 194.425781 372.453125 194.425781 372.519531 194.492188 L 374.722656 196.691406 C 374.785156 196.757812 374.785156 196.859375 374.722656 196.925781 C 374.65625 196.988281 374.554688 196.988281 374.488281 196.925781 Z M 372.285156 194.722656 " fill-opacity="1" fill-rule="nonzero"/><path fill="#b2b2b2" d="M 378.027344 197.265625 C 378.027344 197.355469 377.953125 197.425781 377.863281 197.425781 C 377.769531 197.425781 377.699219 197.355469 377.699219 197.265625 L 377.695312 194.148438 C 377.695312 194.058594 377.769531 193.984375 377.859375 193.984375 C 377.949219 193.984375 378.023438 194.058594 378.023438 194.148438 Z M 378.027344 197.265625 " fill-opacity="1" fill-rule="nonzero"/><path fill="#b2b2b2" d="M 379.417969 195.539062 C 379.507812 195.539062 379.582031 195.613281 379.582031 195.703125 C 379.582031 195.792969 379.507812 195.867188 379.417969 195.867188 L 376.304688 195.871094 C 376.214844 195.871094 376.140625 195.796875 376.140625 195.707031 C 376.140625 195.617188 376.214844 195.542969 376.304688 195.542969 Z M 379.417969 195.539062 " fill-opacity="1" fill-rule="nonzero"/><path fill="#b2b2b2" d="M 378.847656 194.488281 C 378.910156 194.421875 379.011719 194.421875 379.078125 194.488281 C 379.140625 194.550781 379.140625 194.65625 379.074219 194.71875 L 376.878906 196.925781 C 376.8125 196.988281 376.707031 196.988281 376.644531 196.925781 C 376.582031 196.859375 376.582031 196.757812 376.644531 196.691406 Z M 378.847656 194.488281 " fill-opacity="1" fill-rule="nonzero"/><path fill="#b2b2b2" d="M 376.644531 194.71875 C 376.582031 194.65625 376.582031 194.550781 376.644531 194.488281 C 376.707031 194.421875 376.8125 194.421875 376.878906 194.488281 L 379.078125 196.691406 C 379.144531 196.753906 379.144531 196.859375 379.078125 196.921875 C 379.015625 196.984375 378.910156 196.984375 378.847656 196.921875 Z M 376.644531 194.71875 " fill-opacity="1" fill-rule="nonzero"/><path fill="#b2b2b2" d="M 382.382812 197.261719 C 382.382812 197.351562 382.3125 197.425781 382.21875 197.425781 C 382.128906 197.425781 382.058594 197.351562 382.054688 197.261719 L 382.054688 194.144531 C 382.054688 194.054688 382.128906 193.980469 382.21875 193.980469 C 382.308594 193.980469 382.382812 194.054688 382.382812 194.144531 Z M 382.382812 197.261719 " fill-opacity="1" fill-rule="nonzero"/><path fill="#b2b2b2" d="M 383.777344 195.539062 C 383.863281 195.539062 383.9375 195.613281 383.941406 195.703125 C 383.941406 195.792969 383.863281 195.867188 383.777344 195.867188 L 380.664062 195.867188 C 380.574219 195.867188 380.5 195.792969 380.5 195.703125 C 380.5 195.613281 380.574219 195.539062 380.664062 195.539062 Z M 383.777344 195.539062 " fill-opacity="1" fill-rule="nonzero"/><path fill="#b2b2b2" d="M 383.203125 194.484375 C 383.265625 194.421875 383.371094 194.421875 383.433594 194.484375 C 383.5 194.546875 383.5 194.652344 383.433594 194.714844 L 381.234375 196.921875 C 381.171875 196.984375 381.066406 196.988281 381.003906 196.921875 C 380.9375 196.855469 380.9375 196.753906 381.003906 196.691406 Z M 383.203125 194.484375 " fill-opacity="1" fill-rule="nonzero"/><path fill="#b2b2b2" d="M 381.003906 194.71875 C 380.9375 194.652344 380.9375 194.550781 381.003906 194.484375 C 381.066406 194.421875 381.171875 194.421875 381.234375 194.484375 L 383.4375 196.6875 C 383.5 196.75 383.5 196.855469 383.4375 196.917969 C 383.371094 196.984375 383.269531 196.984375 383.207031 196.917969 Z M 381.003906 194.71875 " fill-opacity="1" fill-rule="nonzero"/><path fill="#b2b2b2" d="M 386.742188 197.257812 C 386.742188 197.347656 386.667969 197.421875 386.578125 197.421875 C 386.488281 197.421875 386.414062 197.347656 386.414062 197.257812 L 386.414062 194.140625 C 386.414062 194.050781 386.484375 193.976562 386.578125 193.976562 C 386.667969 193.976562 386.738281 194.050781 386.742188 194.140625 Z M 386.742188 197.257812 " fill-opacity="1" fill-rule="nonzero"/><path fill="#b2b2b2" d="M 388.132812 195.535156 C 388.222656 195.535156 388.296875 195.609375 388.296875 195.699219 C 388.296875 195.789062 388.222656 195.863281 388.132812 195.863281 L 385.019531 195.863281 C 384.929688 195.863281 384.859375 195.792969 384.859375 195.699219 C 384.855469 195.609375 384.929688 195.535156 385.019531 195.535156 Z M 388.132812 195.535156 " fill-opacity="1" fill-rule="nonzero"/><path fill="#b2b2b2" d="M 387.5625 194.480469 C 387.625 194.417969 387.730469 194.417969 387.792969 194.480469 C 387.855469 194.542969 387.859375 194.648438 387.792969 194.714844 L 385.59375 196.917969 C 385.527344 196.980469 385.425781 196.980469 385.359375 196.917969 C 385.296875 196.855469 385.296875 196.75 385.359375 196.6875 Z M 387.5625 194.480469 " fill-opacity="1" fill-rule="nonzero"/><path fill="#b2b2b2" d="M 385.359375 194.714844 C 385.296875 194.648438 385.296875 194.546875 385.359375 194.480469 C 385.425781 194.417969 385.527344 194.417969 385.59375 194.480469 L 387.792969 196.683594 C 387.859375 196.746094 387.859375 196.851562 387.796875 196.914062 C 387.730469 196.980469 387.625 196.980469 387.5625 196.917969 Z M 385.359375 194.714844 " fill-opacity="1" fill-rule="nonzero"/><path fill="#a7641c" d="M 415.851562 168.699219 C 415.851562 171.691406 404.121094 174.117188 389.648438 174.117188 C 375.175781 174.117188 363.445312 171.691406 363.445312 168.699219 C 363.445312 168.292969 363.417969 167.476562 363.832031 167.09375 C 366.441406 164.671875 377.144531 163.28125 389.648438 163.28125 C 401.679688 163.28125 412.324219 164.882812 415.402344 167.167969 C 416.027344 167.632812 415.851562 168.191406 415.851562 168.699219 Z M 415.851562 168.699219 " fill-opacity="1" fill-rule="nonzero"/><path fill="#f6a348" d="M 415.859375 168.015625 C 415.859375 168.191406 415.816406 168.367188 415.734375 168.546875 C 415.648438 168.722656 415.523438 168.898438 415.355469 169.070312 C 415.1875 169.246094 414.980469 169.417969 414.730469 169.585938 C 414.484375 169.757812 414.195312 169.925781 413.867188 170.085938 C 413.535156 170.25 413.171875 170.410156 412.765625 170.570312 C 412.363281 170.726562 411.921875 170.875 411.445312 171.023438 C 410.96875 171.171875 410.457031 171.3125 409.914062 171.453125 C 409.367188 171.589844 408.792969 171.71875 408.183594 171.84375 C 407.578125 171.972656 406.945312 172.089844 406.28125 172.203125 C 405.617188 172.316406 404.929688 172.421875 404.214844 172.519531 C 403.5 172.617188 402.765625 172.707031 402.007812 172.792969 C 401.253906 172.875 400.476562 172.953125 399.683594 173.019531 C 398.890625 173.085938 398.085938 173.148438 397.261719 173.199219 C 396.441406 173.25 395.609375 173.292969 394.769531 173.328125 C 393.925781 173.363281 393.078125 173.386719 392.226562 173.40625 C 391.371094 173.421875 390.515625 173.433594 389.65625 173.433594 C 388.800781 173.433594 387.941406 173.421875 387.089844 173.40625 C 386.234375 173.386719 385.386719 173.363281 384.546875 173.328125 C 383.703125 173.292969 382.871094 173.25 382.050781 173.199219 C 381.230469 173.148438 380.421875 173.085938 379.628906 173.019531 C 378.835938 172.953125 378.0625 172.875 377.304688 172.792969 C 376.546875 172.707031 375.8125 172.617188 375.097656 172.519531 C 374.386719 172.421875 373.699219 172.316406 373.035156 172.203125 C 372.371094 172.089844 371.734375 171.972656 371.128906 171.84375 C 370.523438 171.71875 369.945312 171.589844 369.402344 171.453125 C 368.859375 171.3125 368.347656 171.171875 367.871094 171.023438 C 367.394531 170.875 366.953125 170.726562 366.546875 170.570312 C 366.144531 170.410156 365.777344 170.25 365.449219 170.085938 C 365.121094 169.925781 364.832031 169.757812 364.582031 169.585938 C 364.332031 169.417969 364.125 169.246094 363.957031 169.070312 C 363.789062 168.898438 363.664062 168.722656 363.582031 168.546875 C 363.496094 168.367188 363.453125 168.191406 363.453125 168.015625 C 363.453125 167.835938 363.496094 167.660156 363.582031 167.484375 C 363.664062 167.308594 363.789062 167.132812 363.957031 166.957031 C 364.125 166.785156 364.332031 166.613281 364.582031 166.441406 C 364.832031 166.273438 365.121094 166.105469 365.449219 165.941406 C 365.777344 165.777344 366.144531 165.617188 366.546875 165.460938 C 366.953125 165.304688 367.394531 165.152344 367.871094 165.003906 C 368.347656 164.855469 368.859375 164.714844 369.402344 164.578125 C 369.945312 164.441406 370.523438 164.308594 371.128906 164.183594 C 371.734375 164.058594 372.371094 163.941406 373.035156 163.828125 C 373.699219 163.714844 374.386719 163.609375 375.097656 163.511719 C 375.8125 163.410156 376.546875 163.320312 377.304688 163.238281 C 378.0625 163.152344 378.835938 163.078125 379.628906 163.007812 C 380.421875 162.941406 381.230469 162.882812 382.050781 162.832031 C 382.871094 162.777344 383.703125 162.734375 384.546875 162.703125 C 385.386719 162.667969 386.234375 162.640625 387.089844 162.625 C 387.941406 162.605469 388.800781 162.597656 389.65625 162.597656 C 390.515625 162.597656 391.371094 162.605469 392.226562 162.625 C 393.078125 162.640625 393.925781 162.667969 394.769531 162.703125 C 395.609375 162.734375 396.441406 162.777344 397.261719 162.832031 C 398.085938 162.882812 398.890625 162.941406 399.683594 163.007812 C 400.476562 163.078125 401.253906 163.152344 402.007812 163.238281 C 402.765625 163.320312 403.5 163.410156 404.214844 163.511719 C 404.929688 163.609375 405.617188 163.714844 406.28125 163.828125 C 406.945312 163.941406 407.578125 164.058594 408.183594 164.183594 C 408.792969 164.308594 409.367188 164.441406 409.914062 164.578125 C 410.457031 164.714844 410.96875 164.855469 411.445312 165.003906 C 411.921875 165.152344 412.363281 165.304688 412.765625 165.460938 C 413.171875 165.617188 413.535156 165.777344 413.867188 165.941406 C 414.195312 166.105469 414.484375 166.273438 414.730469 166.441406 C 414.980469 166.613281 415.1875 166.785156 415.355469 166.957031 C 415.523438 167.132812 415.648438 167.308594 415.734375 167.484375 C 415.816406 167.660156 415.859375 167.835938 415.859375 168.015625 Z M 415.859375 168.015625 " fill-opacity="1" fill-rule="nonzero"/><path fill="#f8b051" d="M 399.738281 152.921875 C 395.714844 152.113281 392.621094 153.355469 392.621094 153.355469 C 387.769531 146.378906 383.167969 147.160156 383.167969 147.160156 C 374.882812 147.851562 375.195312 166.050781 375.195312 166.050781 C 375.195312 166.847656 381.65625 167.492188 389.625 167.492188 C 397.597656 167.492188 404.058594 166.847656 404.058594 166.050781 C 404.640625 154.1875 399.738281 152.921875 399.738281 152.921875 Z M 399.738281 152.921875 " fill-opacity="1" fill-rule="nonzero"/><path fill="#e83c37" d="M 389.648438 163.308594 C 381.664062 163.308594 375.367188 162.710938 375.367188 161.917969 C 375.367188 161.917969 375.214844 163.226562 375.195312 163.949219 C 375.164062 164.925781 375.195312 165.285156 375.195312 165.285156 C 375.195312 166.082031 381.664062 166.726562 389.648438 166.726562 C 397.632812 166.726562 404.105469 166.082031 404.105469 165.285156 C 404.105469 165.285156 404.148438 164.273438 404.128906 163.78125 C 404.101562 163.011719 404.105469 162.933594 404.023438 161.867188 C 404.023438 162.664062 397.632812 163.308594 389.648438 163.308594 Z M 389.648438 163.308594 " fill-opacity="1" fill-rule="nonzero"/><path fill="#131328" d="M 403.863281 176.433594 C 403.839844 176.144531 403.046875 175.96875 402.085938 176.042969 L 401.835938 176.0625 C 400.851562 174.167969 398.761719 174.648438 395.804688 175.535156 C 392.664062 176.476562 385.707031 176.523438 382.148438 175.535156 C 379.171875 174.710938 377.097656 174.1875 376.113281 176.0625 L 375.835938 176.042969 C 374.878906 175.96875 374.085938 176.140625 374.0625 176.433594 L 373.820312 179.582031 C 373.796875 179.871094 374.554688 180.167969 375.511719 180.242188 L 375.699219 180.257812 C 376.289062 182.925781 378.445312 185.09375 381.304688 185.546875 C 384.785156 186.101562 388.070312 183.921875 388.976562 180.59375 C 389.882812 183.921875 393.167969 186.101562 396.648438 185.546875 C 399.507812 185.09375 401.664062 182.921875 402.253906 180.253906 L 402.414062 180.242188 C 403.371094 180.167969 404.128906 179.871094 404.105469 179.582031 Z M 403.863281 176.433594 " fill-opacity="1" fill-rule="nonzero"/><path fill="#ffffff" d="M 400.027344 178.753906 C 400.5625 180.980469 399.191406 183.222656 396.96875 183.757812 C 394.742188 184.292969 392.503906 182.925781 391.96875 180.695312 C 391.433594 178.46875 393.757812 178.292969 395.984375 177.753906 C 398.207031 177.21875 399.492188 176.523438 400.027344 178.753906 Z M 400.027344 178.753906 " fill-opacity="1" fill-rule="nonzero"/><path fill="#ffffff" d="M 378.347656 178.753906 C 377.808594 180.980469 379.179688 183.222656 381.402344 183.757812 C 383.628906 184.292969 385.867188 182.925781 386.402344 180.695312 C 386.9375 178.46875 384.617188 178.292969 382.390625 177.753906 C 380.164062 177.21875 378.882812 176.523438 378.347656 178.753906 Z M 378.347656 178.753906 " fill-opacity="1" fill-rule="nonzero"/></svg>